<?xml version="1.0" encoding="UTF-8" standalone="no"?>
<!DOCTYPE svg PUBLIC "-//W3C//DTD SVG 1.1//EN"
 "http://www.w3.org/Graphics/SVG/1.1/DTD/svg11.dtd">
<!-- Generated by graphviz version 2.47.0 (20210316.0004)
 -->
<!-- Title: dependencies Pages: 1 -->
<svg width="2414pt" height="211pt"
 viewBox="0.00 0.00 2414.00 211.00" xmlns="http://www.w3.org/2000/svg" xmlns:xlink="http://www.w3.org/1999/xlink">
<g id="graph0" class="graph" transform="scale(1 1) rotate(0) translate(4 207)">
<title>dependencies</title>
<polygon fill="white" stroke="transparent" points="-4,4 -4,-207 2410,-207 2410,4 -4,4"/>
<text text-anchor="start" x="1182.01" y="-42.4" font-family="Times-12" font-weight="bold" font-size="14.00">Legend</text>
<polygon fill="#ffffb3" stroke="transparent" points="969,-10 969,-30 989,-30 989,-10 969,-10"/>
<text text-anchor="start" x="992.63" y="-15.4" font-family="Times-12" font-size="14.00"> &#160;Declarations</text>
<polygon fill="#8dd3c7" stroke="transparent" points="1082,-10 1082,-30 1102,-30 1102,-10 1082,-10"/>
<text text-anchor="start" x="1105.73" y="-15.4" font-family="Times-12" font-size="14.00"> &#160;Module</text>
<polygon fill="#80b1d3" stroke="transparent" points="1168,-10 1168,-30 1188,-30 1188,-10 1168,-10"/>
<text text-anchor="start" x="1191.78" y="-15.4" font-family="Times-12" font-size="14.00"> &#160;Bootstrap</text>
<polygon fill="#fdb462" stroke="transparent" points="1265,-10 1265,-30 1285,-30 1285,-10 1265,-10"/>
<text text-anchor="start" x="1288.67" y="-15.4" font-family="Times-12" font-size="14.00"> &#160;Providers</text>
<polygon fill="#fb8072" stroke="transparent" points="1361,-10 1361,-30 1381,-30 1381,-10 1361,-10"/>
<text text-anchor="start" x="1384.73" y="-15.4" font-family="Times-12" font-size="14.00"> &#160;Exports</text>
<g id="clust1" class="cluster">
<title>cluster_ShopModule</title>
<polygon fill="none" stroke="black" stroke-dasharray="1,5" points="8,-70 8,-195 2398,-195 2398,-70 8,-70"/>
</g>
<g id="clust2" class="cluster">
<title>cluster_ShopModule_declarations</title>
<polygon fill="none" stroke="black" points="16,-78 16,-130 2390,-130 2390,-78 16,-78"/>
</g>
<!-- AllshopComponent -->
<g id="node1" class="node">
<title>AllshopComponent</title>
<polygon fill="#ffffb3" stroke="black" points="2381.67,-122 2256.33,-122 2256.33,-86 2381.67,-86 2381.67,-122"/>
<text text-anchor="middle" x="2319" y="-99.8" font-family="Times,serif" font-size="14.00">AllshopComponent</text>
</g>
<!-- ShopModule -->
<g id="node14" class="node">
<title>ShopModule</title>
<polygon fill="#8dd3c7" stroke="black" points="1288.33,-187 1285.33,-191 1264.33,-191 1261.33,-187 1199.67,-187 1199.67,-151 1288.33,-151 1288.33,-187"/>
<text text-anchor="middle" x="1244" y="-164.8" font-family="Times,serif" font-size="14.00">ShopModule</text>
</g>
<!-- AllshopComponent&#45;&gt;ShopModule -->
<g id="edge1" class="edge">
<title>AllshopComponent&#45;&gt;ShopModule</title>
<path fill="none" stroke="black" d="M2319,-122.09C2319,-145.13 2319,-182 2319,-182 2319,-182 1298.48,-182 1298.48,-182"/>
<polygon fill="black" stroke="black" points="1298.48,-178.5 1288.48,-182 1298.48,-185.5 1298.48,-178.5"/>
</g>
<!-- ShoparachnidaComponent -->
<g id="node2" class="node">
<title>ShoparachnidaComponent</title>
<polygon fill="#ffffb3" stroke="black" points="2238.03,-122 2073.97,-122 2073.97,-86 2238.03,-86 2238.03,-122"/>
<text text-anchor="middle" x="2156" y="-99.8" font-family="Times,serif" font-size="14.00">ShoparachnidaComponent</text>
</g>
<!-- ShoparachnidaComponent&#45;&gt;ShopModule -->
<g id="edge2" class="edge">
<title>ShoparachnidaComponent&#45;&gt;ShopModule</title>
<path fill="none" stroke="black" d="M2156,-122.04C2156,-143.66 2156,-177 2156,-177 2156,-177 1298.3,-177 1298.3,-177"/>
<polygon fill="black" stroke="black" points="1298.3,-173.5 1288.3,-177 1298.3,-180.5 1298.3,-173.5"/>
</g>
<!-- ShopblattodeaComponent -->
<g id="node3" class="node">
<title>ShopblattodeaComponent</title>
<polygon fill="#ffffb3" stroke="black" points="2055.93,-122 1894.07,-122 1894.07,-86 2055.93,-86 2055.93,-122"/>
<text text-anchor="middle" x="1975" y="-99.8" font-family="Times,serif" font-size="14.00">ShopblattodeaComponent</text>
</g>
<!-- ShopblattodeaComponent&#45;&gt;ShopModule -->
<g id="edge3" class="edge">
<title>ShopblattodeaComponent&#45;&gt;ShopModule</title>
<path fill="none" stroke="black" d="M1975,-122.22C1975,-142.37 1975,-172 1975,-172 1975,-172 1298.35,-172 1298.35,-172"/>
<polygon fill="black" stroke="black" points="1298.35,-168.5 1288.35,-172 1298.35,-175.5 1298.35,-168.5"/>
</g>
<!-- ShopchilopodaComponent -->
<g id="node4" class="node">
<title>ShopchilopodaComponent</title>
<polygon fill="#ffffb3" stroke="black" points="1876.83,-122 1711.17,-122 1711.17,-86 1876.83,-86 1876.83,-122"/>
<text text-anchor="middle" x="1794" y="-99.8" font-family="Times,serif" font-size="14.00">ShopchilopodaComponent</text>
</g>
<!-- ShopchilopodaComponent&#45;&gt;ShopModule -->
<g id="edge4" class="edge">
<title>ShopchilopodaComponent&#45;&gt;ShopModule</title>
<path fill="none" stroke="black" d="M1794,-122.22C1794,-140.83 1794,-167 1794,-167 1794,-167 1298.54,-167 1298.54,-167"/>
<polygon fill="black" stroke="black" points="1298.54,-163.5 1288.54,-167 1298.54,-170.5 1298.54,-163.5"/>
</g>
<!-- ShopcoleopteraComponent -->
<g id="node5" class="node">
<title>ShopcoleopteraComponent</title>
<polygon fill="#ffffb3" stroke="black" points="1693.42,-122 1524.58,-122 1524.58,-86 1693.42,-86 1693.42,-122"/>
<text text-anchor="middle" x="1609" y="-99.8" font-family="Times,serif" font-size="14.00">ShopcoleopteraComponent</text>
</g>
<!-- ShopcoleopteraComponent&#45;&gt;ShopModule -->
<g id="edge5" class="edge">
<title>ShopcoleopteraComponent&#45;&gt;ShopModule</title>
<path fill="none" stroke="black" d="M1609,-122.03C1609,-139.06 1609,-162 1609,-162 1609,-162 1298.39,-162 1298.39,-162"/>
<polygon fill="black" stroke="black" points="1298.39,-158.5 1288.39,-162 1298.39,-165.5 1298.39,-158.5"/>
</g>
<!-- ShopcrustaceaComponent -->
<g id="node6" class="node">
<title>ShopcrustaceaComponent</title>
<polygon fill="#ffffb3" stroke="black" points="1507.18,-122 1344.82,-122 1344.82,-86 1507.18,-86 1507.18,-122"/>
<text text-anchor="middle" x="1426" y="-99.8" font-family="Times,serif" font-size="14.00">ShopcrustaceaComponent</text>
</g>
<!-- ShopcrustaceaComponent&#45;&gt;ShopModule -->
<g id="edge6" class="edge">
<title>ShopcrustaceaComponent&#45;&gt;ShopModule</title>
<path fill="none" stroke="black" d="M1426,-122.24C1426,-137.57 1426,-157 1426,-157 1426,-157 1298.52,-157 1298.52,-157"/>
<polygon fill="black" stroke="black" points="1298.52,-153.5 1288.52,-157 1298.52,-160.5 1298.52,-153.5"/>
</g>
<!-- ShopdiplopodaComponent -->
<g id="node7" class="node">
<title>ShopdiplopodaComponent</title>
<polygon fill="#ffffb3" stroke="black" points="1327.11,-122 1160.89,-122 1160.89,-86 1327.11,-86 1327.11,-122"/>
<text text-anchor="middle" x="1244" y="-99.8" font-family="Times,serif" font-size="14.00">ShopdiplopodaComponent</text>
</g>
<!-- ShopdiplopodaComponent&#45;&gt;ShopModule -->
<g id="edge7" class="edge">
<title>ShopdiplopodaComponent&#45;&gt;ShopModule</title>
<path fill="none" stroke="black" d="M1244,-122.11C1244,-122.11 1244,-140.99 1244,-140.99"/>
<polygon fill="black" stroke="black" points="1240.5,-140.99 1244,-150.99 1247.5,-140.99 1240.5,-140.99"/>
</g>
<!-- ShopgastropodaComponent -->
<g id="node8" class="node">
<title>ShopgastropodaComponent</title>
<polygon fill="#ffffb3" stroke="black" points="1142.54,-122 971.46,-122 971.46,-86 1142.54,-86 1142.54,-122"/>
<text text-anchor="middle" x="1057" y="-99.8" font-family="Times,serif" font-size="14.00">ShopgastropodaComponent</text>
</g>
<!-- ShopgastropodaComponent&#45;&gt;ShopModule -->
<g id="edge8" class="edge">
<title>ShopgastropodaComponent&#45;&gt;ShopModule</title>
<path fill="none" stroke="black" d="M1057,-122.24C1057,-137.57 1057,-157 1057,-157 1057,-157 1189.68,-157 1189.68,-157"/>
<polygon fill="black" stroke="black" points="1189.68,-160.5 1199.68,-157 1189.68,-153.5 1189.68,-160.5"/>
</g>
<!-- ShophymenopteraComponent -->
<g id="node9" class="node">
<title>ShophymenopteraComponent</title>
<polygon fill="#ffffb3" stroke="black" points="953.7,-122 770.3,-122 770.3,-86 953.7,-86 953.7,-122"/>
<text text-anchor="middle" x="862" y="-99.8" font-family="Times,serif" font-size="14.00">ShophymenopteraComponent</text>
</g>
<!-- ShophymenopteraComponent&#45;&gt;ShopModule -->
<g id="edge9" class="edge">
<title>ShophymenopteraComponent&#45;&gt;ShopModule</title>
<path fill="none" stroke="black" d="M862,-122.03C862,-139.06 862,-162 862,-162 862,-162 1189.81,-162 1189.81,-162"/>
<polygon fill="black" stroke="black" points="1189.81,-165.5 1199.81,-162 1189.81,-158.5 1189.81,-165.5"/>
</g>
<!-- ShopisopodaComponent -->
<g id="node10" class="node">
<title>ShopisopodaComponent</title>
<polygon fill="#ffffb3" stroke="black" points="752.67,-122 599.33,-122 599.33,-86 752.67,-86 752.67,-122"/>
<text text-anchor="middle" x="676" y="-99.8" font-family="Times,serif" font-size="14.00">ShopisopodaComponent</text>
</g>
<!-- ShopisopodaComponent&#45;&gt;ShopModule -->
<g id="edge10" class="edge">
<title>ShopisopodaComponent&#45;&gt;ShopModule</title>
<path fill="none" stroke="black" d="M676,-122.22C676,-140.83 676,-167 676,-167 676,-167 1189.43,-167 1189.43,-167"/>
<polygon fill="black" stroke="black" points="1189.43,-170.5 1199.43,-167 1189.43,-163.5 1189.43,-170.5"/>
</g>
<!-- ShoplepidopteraComponent -->
<g id="node11" class="node">
<title>ShoplepidopteraComponent</title>
<polygon fill="#ffffb3" stroke="black" points="581.59,-122 408.41,-122 408.41,-86 581.59,-86 581.59,-122"/>
<text text-anchor="middle" x="495" y="-99.8" font-family="Times,serif" font-size="14.00">ShoplepidopteraComponent</text>
</g>
<!-- ShoplepidopteraComponent&#45;&gt;ShopModule -->
<g id="edge11" class="edge">
<title>ShoplepidopteraComponent&#45;&gt;ShopModule</title>
<path fill="none" stroke="black" d="M495,-122.22C495,-142.37 495,-172 495,-172 495,-172 1189.67,-172 1189.67,-172"/>
<polygon fill="black" stroke="black" points="1189.67,-175.5 1199.67,-172 1189.67,-168.5 1189.67,-175.5"/>
</g>
<!-- ShopmantodeaComponent -->
<g id="node12" class="node">
<title>ShopmantodeaComponent</title>
<polygon fill="#ffffb3" stroke="black" points="390.04,-122 225.96,-122 225.96,-86 390.04,-86 390.04,-122"/>
<text text-anchor="middle" x="308" y="-99.8" font-family="Times,serif" font-size="14.00">ShopmantodeaComponent</text>
</g>
<!-- ShopmantodeaComponent&#45;&gt;ShopModule -->
<g id="edge12" class="edge">
<title>ShopmantodeaComponent&#45;&gt;ShopModule</title>
<path fill="none" stroke="black" d="M308,-122.04C308,-143.66 308,-177 308,-177 308,-177 1189.8,-177 1189.8,-177"/>
<polygon fill="black" stroke="black" points="1189.8,-180.5 1199.8,-177 1189.8,-173.5 1189.8,-180.5"/>
</g>
<!-- ShopphasmatodeaComponent -->
<g id="node13" class="node">
<title>ShopphasmatodeaComponent</title>
<polygon fill="#ffffb3" stroke="black" points="207.7,-122 24.3,-122 24.3,-86 207.7,-86 207.7,-122"/>
<text text-anchor="middle" x="116" y="-99.8" font-family="Times,serif" font-size="14.00">ShopphasmatodeaComponent</text>
</g>
<!-- ShopphasmatodeaComponent&#45;&gt;ShopModule -->
<g id="edge13" class="edge">
<title>ShopphasmatodeaComponent&#45;&gt;ShopModule</title>
<path fill="none" stroke="black" d="M116,-122.09C116,-145.13 116,-182 116,-182 116,-182 1189.78,-182 1189.78,-182"/>
<polygon fill="black" stroke="black" points="1189.78,-185.5 1199.78,-182 1189.78,-178.5 1189.78,-185.5"/>
</g>
</g>
</svg>
