<?xml version="1.0" encoding="UTF-8" standalone="no"?>
<!DOCTYPE svg PUBLIC "-//W3C//DTD SVG 1.1//EN"
 "http://www.w3.org/Graphics/SVG/1.1/DTD/svg11.dtd">
<!-- Generated by graphviz version 2.47.0 (20210316.0004)
 -->
<!-- Title: dependencies Pages: 1 -->
<svg width="2712pt" height="211pt"
 viewBox="0.00 0.00 2712.00 211.00" xmlns="http://www.w3.org/2000/svg" xmlns:xlink="http://www.w3.org/1999/xlink">
<g id="graph0" class="graph" transform="scale(1 1) rotate(0) translate(4 207)">
<title>dependencies</title>
<polygon fill="white" stroke="transparent" points="-4,4 -4,-207 2708,-207 2708,4 -4,4"/>
<text text-anchor="start" x="1331.01" y="-42.4" font-family="Times-12" font-weight="bold" font-size="14.00">Legend</text>
<polygon fill="#ffffb3" stroke="transparent" points="1118,-10 1118,-30 1138,-30 1138,-10 1118,-10"/>
<text text-anchor="start" x="1141.63" y="-15.4" font-family="Times-12" font-size="14.00"> &#160;Declarations</text>
<polygon fill="#8dd3c7" stroke="transparent" points="1231,-10 1231,-30 1251,-30 1251,-10 1231,-10"/>
<text text-anchor="start" x="1254.73" y="-15.4" font-family="Times-12" font-size="14.00"> &#160;Module</text>
<polygon fill="#80b1d3" stroke="transparent" points="1317,-10 1317,-30 1337,-30 1337,-10 1317,-10"/>
<text text-anchor="start" x="1340.78" y="-15.4" font-family="Times-12" font-size="14.00"> &#160;Bootstrap</text>
<polygon fill="#fdb462" stroke="transparent" points="1414,-10 1414,-30 1434,-30 1434,-10 1414,-10"/>
<text text-anchor="start" x="1437.67" y="-15.4" font-family="Times-12" font-size="14.00"> &#160;Providers</text>
<polygon fill="#fb8072" stroke="transparent" points="1510,-10 1510,-30 1530,-30 1530,-10 1510,-10"/>
<text text-anchor="start" x="1533.73" y="-15.4" font-family="Times-12" font-size="14.00"> &#160;Exports</text>
<g id="clust1" class="cluster">
<title>cluster_GuidesModule</title>
<polygon fill="none" stroke="black" stroke-dasharray="1,5" points="8,-70 8,-195 2696,-195 2696,-70 8,-70"/>
</g>
<g id="clust16" class="cluster">
<title>cluster_GuidesModule_imports</title>
<polygon fill="none" stroke="black" points="2540,-78 2540,-130 2688,-130 2688,-78 2540,-78"/>
</g>
<g id="clust2" class="cluster">
<title>cluster_GuidesModule_declarations</title>
<polygon fill="none" stroke="black" points="16,-78 16,-130 2532,-130 2532,-78 16,-78"/>
</g>
<!-- AllguidesComponent -->
<g id="node1" class="node">
<title>AllguidesComponent</title>
<polygon fill="#ffffb3" stroke="black" points="2523.77,-122 2388.23,-122 2388.23,-86 2523.77,-86 2523.77,-122"/>
<text text-anchor="middle" x="2456" y="-99.8" font-family="Times,serif" font-size="14.00">AllguidesComponent</text>
</g>
<!-- GuidesModule -->
<g id="node14" class="node">
<title>GuidesModule</title>
<polygon fill="#8dd3c7" stroke="black" points="1460.71,-187 1457.71,-191 1436.71,-191 1433.71,-187 1361.29,-187 1361.29,-151 1460.71,-151 1460.71,-187"/>
<text text-anchor="middle" x="1411" y="-164.8" font-family="Times,serif" font-size="14.00">GuidesModule</text>
</g>
<!-- AllguidesComponent&#45;&gt;GuidesModule -->
<g id="edge1" class="edge">
<title>AllguidesComponent&#45;&gt;GuidesModule</title>
<path fill="none" stroke="black" d="M2456,-122.04C2456,-143.66 2456,-177 2456,-177 2456,-177 1470.7,-177 1470.7,-177"/>
<polygon fill="black" stroke="black" points="1470.7,-173.5 1460.7,-177 1470.7,-180.5 1470.7,-173.5"/>
</g>
<!-- GuidesarachnidaComponent -->
<g id="node2" class="node">
<title>GuidesarachnidaComponent</title>
<polygon fill="#ffffb3" stroke="black" points="2369.9,-122 2194.1,-122 2194.1,-86 2369.9,-86 2369.9,-122"/>
<text text-anchor="middle" x="2282" y="-99.8" font-family="Times,serif" font-size="14.00">GuidesarachnidaComponent</text>
</g>
<!-- GuidesarachnidaComponent&#45;&gt;GuidesModule -->
<g id="edge2" class="edge">
<title>GuidesarachnidaComponent&#45;&gt;GuidesModule</title>
<path fill="none" stroke="black" d="M2282,-122.22C2282,-142.37 2282,-172 2282,-172 2282,-172 1470.64,-172 1470.64,-172"/>
<polygon fill="black" stroke="black" points="1470.64,-168.5 1460.64,-172 1470.64,-175.5 1470.64,-168.5"/>
</g>
<!-- GuidesblattodeaComponent -->
<g id="node3" class="node">
<title>GuidesblattodeaComponent</title>
<polygon fill="#ffffb3" stroke="black" points="2176.3,-122 2003.7,-122 2003.7,-86 2176.3,-86 2176.3,-122"/>
<text text-anchor="middle" x="2090" y="-99.8" font-family="Times,serif" font-size="14.00">GuidesblattodeaComponent</text>
</g>
<!-- GuidesblattodeaComponent&#45;&gt;GuidesModule -->
<g id="edge3" class="edge">
<title>GuidesblattodeaComponent&#45;&gt;GuidesModule</title>
<path fill="none" stroke="black" d="M2090,-122.22C2090,-140.83 2090,-167 2090,-167 2090,-167 1470.65,-167 1470.65,-167"/>
<polygon fill="black" stroke="black" points="1470.65,-163.5 1460.65,-167 1470.65,-170.5 1470.65,-163.5"/>
</g>
<!-- GuideschilopodaComponent -->
<g id="node4" class="node">
<title>GuideschilopodaComponent</title>
<polygon fill="#ffffb3" stroke="black" points="1986.2,-122 1809.8,-122 1809.8,-86 1986.2,-86 1986.2,-122"/>
<text text-anchor="middle" x="1898" y="-99.8" font-family="Times,serif" font-size="14.00">GuideschilopodaComponent</text>
</g>
<!-- GuideschilopodaComponent&#45;&gt;GuidesModule -->
<g id="edge4" class="edge">
<title>GuideschilopodaComponent&#45;&gt;GuidesModule</title>
<path fill="none" stroke="black" d="M1898,-122.03C1898,-139.06 1898,-162 1898,-162 1898,-162 1470.83,-162 1470.83,-162"/>
<polygon fill="black" stroke="black" points="1470.83,-158.5 1460.83,-162 1470.83,-165.5 1470.83,-158.5"/>
</g>
<!-- GuidescoleopteraComponent -->
<g id="node5" class="node">
<title>GuidescoleopteraComponent</title>
<polygon fill="#ffffb3" stroke="black" points="1791.79,-122 1612.21,-122 1612.21,-86 1791.79,-86 1791.79,-122"/>
<text text-anchor="middle" x="1702" y="-99.8" font-family="Times,serif" font-size="14.00">GuidescoleopteraComponent</text>
</g>
<!-- GuidescoleopteraComponent&#45;&gt;GuidesModule -->
<g id="edge5" class="edge">
<title>GuidescoleopteraComponent&#45;&gt;GuidesModule</title>
<path fill="none" stroke="black" d="M1702,-122.24C1702,-137.57 1702,-157 1702,-157 1702,-157 1470.69,-157 1470.69,-157"/>
<polygon fill="black" stroke="black" points="1470.69,-153.5 1460.69,-157 1470.69,-160.5 1470.69,-153.5"/>
</g>
<!-- GuidescrustaceaComponent -->
<g id="node6" class="node">
<title>GuidescrustaceaComponent</title>
<polygon fill="#ffffb3" stroke="black" points="1594.56,-122 1421.44,-122 1421.44,-86 1594.56,-86 1594.56,-122"/>
<text text-anchor="middle" x="1508" y="-99.8" font-family="Times,serif" font-size="14.00">GuidescrustaceaComponent</text>
</g>
<!-- GuidescrustaceaComponent&#45;&gt;GuidesModule -->
<g id="edge6" class="edge">
<title>GuidescrustaceaComponent&#45;&gt;GuidesModule</title>
<path fill="none" stroke="black" d="M1441.04,-122.11C1441.04,-122.11 1441.04,-140.99 1441.04,-140.99"/>
<polygon fill="black" stroke="black" points="1437.54,-140.99 1441.04,-150.99 1444.54,-140.99 1437.54,-140.99"/>
</g>
<!-- GuidesdiplopodaComponent -->
<g id="node7" class="node">
<title>GuidesdiplopodaComponent</title>
<polygon fill="#ffffb3" stroke="black" points="1403.48,-122 1226.52,-122 1226.52,-86 1403.48,-86 1403.48,-122"/>
<text text-anchor="middle" x="1315" y="-99.8" font-family="Times,serif" font-size="14.00">GuidesdiplopodaComponent</text>
</g>
<!-- GuidesdiplopodaComponent&#45;&gt;GuidesModule -->
<g id="edge7" class="edge">
<title>GuidesdiplopodaComponent&#45;&gt;GuidesModule</title>
<path fill="none" stroke="black" d="M1382.44,-122.11C1382.44,-122.11 1382.44,-140.99 1382.44,-140.99"/>
<polygon fill="black" stroke="black" points="1378.94,-140.99 1382.44,-150.99 1385.94,-140.99 1378.94,-140.99"/>
</g>
<!-- GuidesgastropodaComponent -->
<g id="node8" class="node">
<title>GuidesgastropodaComponent</title>
<polygon fill="#ffffb3" stroke="black" points="1208.41,-122 1025.59,-122 1025.59,-86 1208.41,-86 1208.41,-122"/>
<text text-anchor="middle" x="1117" y="-99.8" font-family="Times,serif" font-size="14.00">GuidesgastropodaComponent</text>
</g>
<!-- GuidesgastropodaComponent&#45;&gt;GuidesModule -->
<g id="edge8" class="edge">
<title>GuidesgastropodaComponent&#45;&gt;GuidesModule</title>
<path fill="none" stroke="black" d="M1117,-122.24C1117,-137.57 1117,-157 1117,-157 1117,-157 1351.13,-157 1351.13,-157"/>
<polygon fill="black" stroke="black" points="1351.13,-160.5 1361.13,-157 1351.13,-153.5 1351.13,-160.5"/>
</g>
<!-- GuideshymenopteraComponent -->
<g id="node9" class="node">
<title>GuideshymenopteraComponent</title>
<polygon fill="#ffffb3" stroke="black" points="1008.07,-122 813.93,-122 813.93,-86 1008.07,-86 1008.07,-122"/>
<text text-anchor="middle" x="911" y="-99.8" font-family="Times,serif" font-size="14.00">GuideshymenopteraComponent</text>
</g>
<!-- GuideshymenopteraComponent&#45;&gt;GuidesModule -->
<g id="edge9" class="edge">
<title>GuideshymenopteraComponent&#45;&gt;GuidesModule</title>
<path fill="none" stroke="black" d="M911,-122.03C911,-139.06 911,-162 911,-162 911,-162 1351.23,-162 1351.23,-162"/>
<polygon fill="black" stroke="black" points="1351.23,-165.5 1361.23,-162 1351.23,-158.5 1351.23,-165.5"/>
</g>
<!-- GuidesisopodaComponent -->
<g id="node10" class="node">
<title>GuidesisopodaComponent</title>
<polygon fill="#ffffb3" stroke="black" points="796.04,-122 631.96,-122 631.96,-86 796.04,-86 796.04,-122"/>
<text text-anchor="middle" x="714" y="-99.8" font-family="Times,serif" font-size="14.00">GuidesisopodaComponent</text>
</g>
<!-- GuidesisopodaComponent&#45;&gt;GuidesModule -->
<g id="edge10" class="edge">
<title>GuidesisopodaComponent&#45;&gt;GuidesModule</title>
<path fill="none" stroke="black" d="M714,-122.22C714,-140.83 714,-167 714,-167 714,-167 1351.15,-167 1351.15,-167"/>
<polygon fill="black" stroke="black" points="1351.15,-170.5 1361.15,-167 1351.15,-163.5 1351.15,-170.5"/>
</g>
<!-- GuideslepidopteraComponent -->
<g id="node11" class="node">
<title>GuideslepidopteraComponent</title>
<polygon fill="#ffffb3" stroke="black" points="613.97,-122 430.03,-122 430.03,-86 613.97,-86 613.97,-122"/>
<text text-anchor="middle" x="522" y="-99.8" font-family="Times,serif" font-size="14.00">GuideslepidopteraComponent</text>
</g>
<!-- GuideslepidopteraComponent&#45;&gt;GuidesModule -->
<g id="edge11" class="edge">
<title>GuideslepidopteraComponent&#45;&gt;GuidesModule</title>
<path fill="none" stroke="black" d="M522,-122.22C522,-142.37 522,-172 522,-172 522,-172 1351.3,-172 1351.3,-172"/>
<polygon fill="black" stroke="black" points="1351.3,-175.5 1361.3,-172 1351.3,-168.5 1351.3,-175.5"/>
</g>
<!-- GuidesmantodeaComponent -->
<g id="node12" class="node">
<title>GuidesmantodeaComponent</title>
<polygon fill="#ffffb3" stroke="black" points="411.91,-122 236.09,-122 236.09,-86 411.91,-86 411.91,-122"/>
<text text-anchor="middle" x="324" y="-99.8" font-family="Times,serif" font-size="14.00">GuidesmantodeaComponent</text>
</g>
<!-- GuidesmantodeaComponent&#45;&gt;GuidesModule -->
<g id="edge12" class="edge">
<title>GuidesmantodeaComponent&#45;&gt;GuidesModule</title>
<path fill="none" stroke="black" d="M324,-122.04C324,-143.66 324,-177 324,-177 324,-177 1351.11,-177 1351.11,-177"/>
<polygon fill="black" stroke="black" points="1351.11,-180.5 1361.11,-177 1351.11,-173.5 1351.11,-180.5"/>
</g>
<!-- GuidesphasmatodeaComponent -->
<g id="node13" class="node">
<title>GuidesphasmatodeaComponent</title>
<polygon fill="#ffffb3" stroke="black" points="218.07,-122 23.93,-122 23.93,-86 218.07,-86 218.07,-122"/>
<text text-anchor="middle" x="121" y="-99.8" font-family="Times,serif" font-size="14.00">GuidesphasmatodeaComponent</text>
</g>
<!-- GuidesphasmatodeaComponent&#45;&gt;GuidesModule -->
<g id="edge13" class="edge">
<title>GuidesphasmatodeaComponent&#45;&gt;GuidesModule</title>
<path fill="none" stroke="black" d="M121,-122.09C121,-145.13 121,-182 121,-182 121,-182 1351.22,-182 1351.22,-182"/>
<polygon fill="black" stroke="black" points="1351.22,-185.5 1361.22,-182 1351.22,-178.5 1351.22,-185.5"/>
</g>
<!-- AuthRoutingModule -->
<g id="node15" class="node">
<title>AuthRoutingModule</title>
<polygon fill="#8dd3c7" stroke="black" points="2680.17,-122 2677.17,-126 2656.17,-126 2653.17,-122 2547.83,-122 2547.83,-86 2680.17,-86 2680.17,-122"/>
<text text-anchor="middle" x="2614" y="-99.8" font-family="Times,serif" font-size="14.00">AuthRoutingModule</text>
</g>
<!-- AuthRoutingModule&#45;&gt;GuidesModule -->
<g id="edge14" class="edge">
<title>AuthRoutingModule&#45;&gt;GuidesModule</title>
<path fill="none" stroke="black" d="M2614,-122.09C2614,-145.13 2614,-182 2614,-182 2614,-182 1470.78,-182 1470.78,-182"/>
<polygon fill="black" stroke="black" points="1470.78,-178.5 1460.78,-182 1470.78,-185.5 1470.78,-178.5"/>
</g>
</g>
</svg>
