<?xml version="1.0" encoding="UTF-8" standalone="no"?>
<!DOCTYPE svg PUBLIC "-//W3C//DTD SVG 1.1//EN"
 "http://www.w3.org/Graphics/SVG/1.1/DTD/svg11.dtd">
<!-- Generated by graphviz version 2.47.0 (20210316.0004)
 -->
<!-- Title: dependencies Pages: 1 -->
<svg width="504pt" height="284pt"
 viewBox="0.00 0.00 504.00 284.00" xmlns="http://www.w3.org/2000/svg" xmlns:xlink="http://www.w3.org/1999/xlink">
<g id="graph0" class="graph" transform="scale(1 1) rotate(0) translate(4 280)">
<title>dependencies</title>
<polygon fill="white" stroke="transparent" points="-4,4 -4,-280 500,-280 500,4 -4,4"/>
<text text-anchor="start" x="227.01" y="-42.4" font-family="Times-12" font-weight="bold" font-size="14.00">Legend</text>
<polygon fill="#ffffb3" stroke="transparent" points="14,-10 14,-30 34,-30 34,-10 14,-10"/>
<text text-anchor="start" x="37.63" y="-15.4" font-family="Times-12" font-size="14.00"> &#160;Declarations</text>
<polygon fill="#8dd3c7" stroke="transparent" points="127,-10 127,-30 147,-30 147,-10 127,-10"/>
<text text-anchor="start" x="150.73" y="-15.4" font-family="Times-12" font-size="14.00"> &#160;Module</text>
<polygon fill="#80b1d3" stroke="transparent" points="213,-10 213,-30 233,-30 233,-10 213,-10"/>
<text text-anchor="start" x="236.78" y="-15.4" font-family="Times-12" font-size="14.00"> &#160;Bootstrap</text>
<polygon fill="#fdb462" stroke="transparent" points="310,-10 310,-30 330,-30 330,-10 310,-10"/>
<text text-anchor="start" x="333.67" y="-15.4" font-family="Times-12" font-size="14.00"> &#160;Providers</text>
<polygon fill="#fb8072" stroke="transparent" points="406,-10 406,-30 426,-30 426,-10 406,-10"/>
<text text-anchor="start" x="429.73" y="-15.4" font-family="Times-12" font-size="14.00"> &#160;Exports</text>
<g id="clust1" class="cluster">
<title>cluster_ContactModule</title>
<polygon fill="none" stroke="black" stroke-dasharray="1,5" points="92,-70 92,-268 404,-268 404,-70 92,-70"/>
</g>
<g id="clust2" class="cluster">
<title>cluster_ContactModule_declarations</title>
<polygon fill="none" stroke="black" points="256,-78 256,-130 396,-130 396,-78 256,-78"/>
</g>
<g id="clust5" class="cluster">
<title>cluster_ContactModule_exports</title>
<polygon fill="none" stroke="black" points="177,-208 177,-260 321,-260 321,-208 177,-208"/>
</g>
<g id="clust4" class="cluster">
<title>cluster_ContactModule_imports</title>
<polygon fill="none" stroke="black" points="100,-78 100,-130 248,-130 248,-78 100,-78"/>
</g>
<!-- ContactComponent -->
<g id="node1" class="node">
<title>ContactComponent</title>
<polygon fill="#ffffb3" stroke="black" points="388.38,-122 263.62,-122 263.62,-86 388.38,-86 388.38,-122"/>
<text text-anchor="middle" x="326" y="-99.8" font-family="Times,serif" font-size="14.00">ContactComponent</text>
</g>
<!-- ContactModule -->
<g id="node2" class="node">
<title>ContactModule</title>
<polygon fill="#8dd3c7" stroke="black" points="300.6,-187 297.6,-191 276.6,-191 273.6,-187 197.4,-187 197.4,-151 300.6,-151 300.6,-187"/>
<text text-anchor="middle" x="249" y="-164.8" font-family="Times,serif" font-size="14.00">ContactModule</text>
</g>
<!-- ContactComponent&#45;&gt;ContactModule -->
<g id="edge1" class="edge">
<title>ContactComponent&#45;&gt;ContactModule</title>
<path fill="none" stroke="black" d="M282.05,-122.11C282.05,-122.11 282.05,-140.99 282.05,-140.99"/>
<polygon fill="black" stroke="black" points="278.55,-140.99 282.05,-150.99 285.55,-140.99 278.55,-140.99"/>
</g>
<!-- ContactComponent  -->
<g id="node4" class="node">
<title>ContactComponent </title>
<polygon fill="#fb8072" stroke="black" points="313.38,-252 184.62,-252 184.62,-216 313.38,-216 313.38,-252"/>
<text text-anchor="middle" x="249" y="-229.8" font-family="Times,serif" font-size="14.00">ContactComponent </text>
</g>
<!-- ContactModule&#45;&gt;ContactComponent  -->
<g id="edge3" class="edge">
<title>ContactModule&#45;&gt;ContactComponent </title>
<path fill="none" stroke="black" stroke-dasharray="5,2" d="M249,-187.11C249,-187.11 249,-205.99 249,-205.99"/>
<polygon fill="black" stroke="black" points="245.5,-205.99 249,-215.99 252.5,-205.99 245.5,-205.99"/>
</g>
<!-- AuthRoutingModule -->
<g id="node3" class="node">
<title>AuthRoutingModule</title>
<polygon fill="#8dd3c7" stroke="black" points="240.17,-122 237.17,-126 216.17,-126 213.17,-122 107.83,-122 107.83,-86 240.17,-86 240.17,-122"/>
<text text-anchor="middle" x="174" y="-99.8" font-family="Times,serif" font-size="14.00">AuthRoutingModule</text>
</g>
<!-- AuthRoutingModule&#45;&gt;ContactModule -->
<g id="edge2" class="edge">
<title>AuthRoutingModule&#45;&gt;ContactModule</title>
<path fill="none" stroke="black" d="M218.89,-122.11C218.89,-122.11 218.89,-140.99 218.89,-140.99"/>
<polygon fill="black" stroke="black" points="215.39,-140.99 218.89,-150.99 222.39,-140.99 215.39,-140.99"/>
</g>
</g>
</svg>
