<?xml version="1.0" encoding="UTF-8" standalone="no"?>
<!DOCTYPE svg PUBLIC "-//W3C//DTD SVG 1.1//EN"
 "http://www.w3.org/Graphics/SVG/1.1/DTD/svg11.dtd">
<!-- Generated by graphviz version 2.47.0 (20210316.0004)
 -->
<!-- Title: dependencies Pages: 1 -->
<svg width="942pt" height="284pt"
 viewBox="0.00 0.00 942.00 284.00" xmlns="http://www.w3.org/2000/svg" xmlns:xlink="http://www.w3.org/1999/xlink">
<g id="graph0" class="graph" transform="scale(1 1) rotate(0) translate(4 280)">
<title>dependencies</title>
<polygon fill="white" stroke="transparent" points="-4,4 -4,-280 938,-280 938,4 -4,4"/>
<text text-anchor="start" x="446.01" y="-42.4" font-family="Times-12" font-weight="bold" font-size="14.00">Legend</text>
<polygon fill="#ffffb3" stroke="transparent" points="233,-10 233,-30 253,-30 253,-10 233,-10"/>
<text text-anchor="start" x="256.63" y="-15.4" font-family="Times-12" font-size="14.00"> &#160;Declarations</text>
<polygon fill="#8dd3c7" stroke="transparent" points="346,-10 346,-30 366,-30 366,-10 346,-10"/>
<text text-anchor="start" x="369.73" y="-15.4" font-family="Times-12" font-size="14.00"> &#160;Module</text>
<polygon fill="#80b1d3" stroke="transparent" points="432,-10 432,-30 452,-30 452,-10 432,-10"/>
<text text-anchor="start" x="455.78" y="-15.4" font-family="Times-12" font-size="14.00"> &#160;Bootstrap</text>
<polygon fill="#fdb462" stroke="transparent" points="529,-10 529,-30 549,-30 549,-10 529,-10"/>
<text text-anchor="start" x="552.67" y="-15.4" font-family="Times-12" font-size="14.00"> &#160;Providers</text>
<polygon fill="#fb8072" stroke="transparent" points="625,-10 625,-30 645,-30 645,-10 625,-10"/>
<text text-anchor="start" x="648.73" y="-15.4" font-family="Times-12" font-size="14.00"> &#160;Exports</text>
<g id="clust1" class="cluster">
<title>cluster_PagesModule</title>
<polygon fill="none" stroke="black" stroke-dasharray="1,5" points="8,-70 8,-268 926,-268 926,-70 8,-70"/>
</g>
<g id="clust5" class="cluster">
<title>cluster_PagesModule_imports</title>
<polygon fill="none" stroke="black" points="301,-78 301,-130 918,-130 918,-78 301,-78"/>
</g>
<g id="clust6" class="cluster">
<title>cluster_PagesModule_exports</title>
<polygon fill="none" stroke="black" points="236,-208 236,-260 705,-260 705,-208 236,-208"/>
</g>
<g id="clust2" class="cluster">
<title>cluster_PagesModule_declarations</title>
<polygon fill="none" stroke="black" points="16,-78 16,-130 293,-130 293,-78 16,-78"/>
</g>
<!-- BlogComponent -->
<g id="node1" class="node">
<title>BlogComponent</title>
<polygon fill="#ffffb3" stroke="black" points="285.06,-122 176.94,-122 176.94,-86 285.06,-86 285.06,-122"/>
<text text-anchor="middle" x="231" y="-99.8" font-family="Times,serif" font-size="14.00">BlogComponent</text>
</g>
<!-- PagesModule -->
<g id="node3" class="node">
<title>PagesModule</title>
<polygon fill="#8dd3c7" stroke="black" points="508.21,-187 505.21,-191 484.21,-191 481.21,-187 415.79,-187 415.79,-151 508.21,-151 508.21,-187"/>
<text text-anchor="middle" x="462" y="-164.8" font-family="Times,serif" font-size="14.00">PagesModule</text>
</g>
<!-- BlogComponent&#45;&gt;PagesModule -->
<g id="edge1" class="edge">
<title>BlogComponent&#45;&gt;PagesModule</title>
<path fill="none" stroke="black" d="M264.68,-122.27C264.68,-140.56 264.68,-166 264.68,-166 264.68,-166 405.74,-166 405.74,-166"/>
<polygon fill="black" stroke="black" points="405.74,-169.5 415.74,-166 405.74,-162.5 405.74,-169.5"/>
</g>
<!-- NotfoundComponent -->
<g id="node2" class="node">
<title>NotfoundComponent</title>
<polygon fill="#ffffb3" stroke="black" points="158.49,-122 23.51,-122 23.51,-86 158.49,-86 158.49,-122"/>
<text text-anchor="middle" x="91" y="-99.8" font-family="Times,serif" font-size="14.00">NotfoundComponent</text>
</g>
<!-- NotfoundComponent&#45;&gt;PagesModule -->
<g id="edge2" class="edge">
<title>NotfoundComponent&#45;&gt;PagesModule</title>
<path fill="none" stroke="black" d="M91,-122.13C91,-142.57 91,-173 91,-173 91,-173 405.76,-173 405.76,-173"/>
<polygon fill="black" stroke="black" points="405.76,-176.5 415.76,-173 405.76,-169.5 405.76,-176.5"/>
</g>
<!-- ContactModule  -->
<g id="node9" class="node">
<title>ContactModule </title>
<polygon fill="#fb8072" stroke="black" points="697.1,-252 590.9,-252 590.9,-216 697.1,-216 697.1,-252"/>
<text text-anchor="middle" x="644" y="-229.8" font-family="Times,serif" font-size="14.00">ContactModule </text>
</g>
<!-- PagesModule&#45;&gt;ContactModule  -->
<g id="edge8" class="edge">
<title>PagesModule&#45;&gt;ContactModule </title>
<path fill="none" stroke="black" stroke-dasharray="5,2" d="M508.16,-180C558.18,-180 630.93,-180 630.93,-180 630.93,-180 630.93,-205.72 630.93,-205.72"/>
<polygon fill="black" stroke="black" points="627.43,-205.72 630.93,-215.72 634.43,-205.72 627.43,-205.72"/>
</g>
<!-- GuidesModule  -->
<g id="node10" class="node">
<title>GuidesModule </title>
<polygon fill="#fb8072" stroke="black" points="572.21,-252 469.79,-252 469.79,-216 572.21,-216 572.21,-252"/>
<text text-anchor="middle" x="521" y="-229.8" font-family="Times,serif" font-size="14.00">GuidesModule </text>
</g>
<!-- PagesModule&#45;&gt;GuidesModule  -->
<g id="edge9" class="edge">
<title>PagesModule&#45;&gt;GuidesModule </title>
<path fill="none" stroke="black" stroke-dasharray="5,2" d="M488.88,-187.11C488.88,-187.11 488.88,-205.99 488.88,-205.99"/>
<polygon fill="black" stroke="black" points="485.38,-205.99 488.88,-215.99 492.38,-205.99 485.38,-205.99"/>
</g>
<!-- HomeModule  -->
<g id="node11" class="node">
<title>HomeModule </title>
<polygon fill="#fb8072" stroke="black" points="451.76,-252 354.24,-252 354.24,-216 451.76,-216 451.76,-252"/>
<text text-anchor="middle" x="403" y="-229.8" font-family="Times,serif" font-size="14.00">HomeModule </text>
</g>
<!-- PagesModule&#45;&gt;HomeModule  -->
<g id="edge10" class="edge">
<title>PagesModule&#45;&gt;HomeModule </title>
<path fill="none" stroke="black" stroke-dasharray="5,2" d="M433.76,-187.11C433.76,-187.11 433.76,-205.99 433.76,-205.99"/>
<polygon fill="black" stroke="black" points="430.26,-205.99 433.76,-215.99 437.26,-205.99 430.26,-205.99"/>
</g>
<!-- ShopModule  -->
<g id="node12" class="node">
<title>ShopModule </title>
<polygon fill="#fb8072" stroke="black" points="335.83,-252 244.17,-252 244.17,-216 335.83,-216 335.83,-252"/>
<text text-anchor="middle" x="290" y="-229.8" font-family="Times,serif" font-size="14.00">ShopModule </text>
</g>
<!-- PagesModule&#45;&gt;ShopModule  -->
<g id="edge11" class="edge">
<title>PagesModule&#45;&gt;ShopModule </title>
<path fill="none" stroke="black" stroke-dasharray="5,2" d="M415.89,-180C375.22,-180 322.38,-180 322.38,-180 322.38,-180 322.38,-205.72 322.38,-205.72"/>
<polygon fill="black" stroke="black" points="318.88,-205.72 322.38,-215.72 325.88,-205.72 318.88,-205.72"/>
</g>
<!-- ContactModule -->
<g id="node4" class="node">
<title>ContactModule</title>
<polygon fill="#8dd3c7" stroke="black" points="909.6,-122 906.6,-126 885.6,-126 882.6,-122 806.4,-122 806.4,-86 909.6,-86 909.6,-122"/>
<text text-anchor="middle" x="858" y="-99.8" font-family="Times,serif" font-size="14.00">ContactModule</text>
</g>
<!-- ContactModule&#45;&gt;PagesModule -->
<g id="edge3" class="edge">
<title>ContactModule&#45;&gt;PagesModule</title>
<path fill="none" stroke="black" d="M858,-122.13C858,-142.57 858,-173 858,-173 858,-173 518.2,-173 518.2,-173"/>
<polygon fill="black" stroke="black" points="518.2,-169.5 508.2,-173 518.2,-176.5 518.2,-169.5"/>
</g>
<!-- GuidesModule -->
<g id="node5" class="node">
<title>GuidesModule</title>
<polygon fill="#8dd3c7" stroke="black" points="788.71,-122 785.71,-126 764.71,-126 761.71,-122 689.29,-122 689.29,-86 788.71,-86 788.71,-122"/>
<text text-anchor="middle" x="739" y="-99.8" font-family="Times,serif" font-size="14.00">GuidesModule</text>
</g>
<!-- GuidesModule&#45;&gt;PagesModule -->
<g id="edge4" class="edge">
<title>GuidesModule&#45;&gt;PagesModule</title>
<path fill="none" stroke="black" d="M693.35,-122.27C693.35,-140.56 693.35,-166 693.35,-166 693.35,-166 518.26,-166 518.26,-166"/>
<polygon fill="black" stroke="black" points="518.26,-162.5 508.26,-166 518.26,-169.5 518.26,-162.5"/>
</g>
<!-- GuidesRoutingModule -->
<g id="node6" class="node">
<title>GuidesRoutingModule</title>
<polygon fill="#8dd3c7" stroke="black" points="671.32,-122 668.32,-126 647.32,-126 644.32,-122 526.68,-122 526.68,-86 671.32,-86 671.32,-122"/>
<text text-anchor="middle" x="599" y="-99.8" font-family="Times,serif" font-size="14.00">GuidesRoutingModule</text>
</g>
<!-- GuidesRoutingModule&#45;&gt;PagesModule -->
<g id="edge5" class="edge">
<title>GuidesRoutingModule&#45;&gt;PagesModule</title>
<path fill="none" stroke="black" d="M549.6,-122.01C549.6,-138.05 549.6,-159 549.6,-159 549.6,-159 518.11,-159 518.11,-159"/>
<polygon fill="black" stroke="black" points="518.11,-155.5 508.11,-159 518.11,-162.5 518.11,-155.5"/>
</g>
<!-- HomeModule -->
<g id="node7" class="node">
<title>HomeModule</title>
<polygon fill="#8dd3c7" stroke="black" points="508.76,-122 505.76,-126 484.76,-126 481.76,-122 415.24,-122 415.24,-86 508.76,-86 508.76,-122"/>
<text text-anchor="middle" x="462" y="-99.8" font-family="Times,serif" font-size="14.00">HomeModule</text>
</g>
<!-- HomeModule&#45;&gt;PagesModule -->
<g id="edge6" class="edge">
<title>HomeModule&#45;&gt;PagesModule</title>
<path fill="none" stroke="black" d="M462,-122.11C462,-122.11 462,-140.99 462,-140.99"/>
<polygon fill="black" stroke="black" points="458.5,-140.99 462,-150.99 465.5,-140.99 458.5,-140.99"/>
</g>
<!-- ShopModule -->
<g id="node8" class="node">
<title>ShopModule</title>
<polygon fill="#8dd3c7" stroke="black" points="397.33,-122 394.33,-126 373.33,-126 370.33,-122 308.67,-122 308.67,-86 397.33,-86 397.33,-122"/>
<text text-anchor="middle" x="353" y="-99.8" font-family="Times,serif" font-size="14.00">ShopModule</text>
</g>
<!-- ShopModule&#45;&gt;PagesModule -->
<g id="edge7" class="edge">
<title>ShopModule&#45;&gt;PagesModule</title>
<path fill="none" stroke="black" d="M375.77,-122.01C375.77,-138.05 375.77,-159 375.77,-159 375.77,-159 405.85,-159 405.85,-159"/>
<polygon fill="black" stroke="black" points="405.85,-162.5 415.85,-159 405.85,-155.5 405.85,-162.5"/>
</g>
</g>
</svg>
