<?xml version="1.0" encoding="UTF-8" standalone="no"?>
<!DOCTYPE svg PUBLIC "-//W3C//DTD SVG 1.1//EN"
 "http://www.w3.org/Graphics/SVG/1.1/DTD/svg11.dtd">
<!-- Generated by graphviz version 2.47.0 (20210316.0004)
 -->
<!-- Title: dependencies Pages: 1 -->
<svg width="5875pt" height="431pt"
 viewBox="0.00 0.00 5875.00 431.00" xmlns="http://www.w3.org/2000/svg" xmlns:xlink="http://www.w3.org/1999/xlink">
<g id="graph0" class="graph" transform="scale(1 1) rotate(0) translate(4 427)">
<title>dependencies</title>
<polygon fill="white" stroke="transparent" points="-4,4 -4,-427 5871,-427 5871,4 -4,4"/>
<text text-anchor="start" x="2912.51" y="-42.4" font-family="Times-12" font-weight="bold" font-size="14.00">Legend</text>
<polygon fill="#ffffb3" stroke="transparent" points="2699.5,-10 2699.5,-30 2719.5,-30 2719.5,-10 2699.5,-10"/>
<text text-anchor="start" x="2723.13" y="-15.4" font-family="Times-12" font-size="14.00"> &#160;Declarations</text>
<polygon fill="#8dd3c7" stroke="transparent" points="2812.5,-10 2812.5,-30 2832.5,-30 2832.5,-10 2812.5,-10"/>
<text text-anchor="start" x="2836.23" y="-15.4" font-family="Times-12" font-size="14.00"> &#160;Module</text>
<polygon fill="#80b1d3" stroke="transparent" points="2898.5,-10 2898.5,-30 2918.5,-30 2918.5,-10 2898.5,-10"/>
<text text-anchor="start" x="2922.28" y="-15.4" font-family="Times-12" font-size="14.00"> &#160;Bootstrap</text>
<polygon fill="#fdb462" stroke="transparent" points="2995.5,-10 2995.5,-30 3015.5,-30 3015.5,-10 2995.5,-10"/>
<text text-anchor="start" x="3019.17" y="-15.4" font-family="Times-12" font-size="14.00"> &#160;Providers</text>
<polygon fill="#fb8072" stroke="transparent" points="3091.5,-10 3091.5,-30 3111.5,-30 3111.5,-10 3091.5,-10"/>
<text text-anchor="start" x="3115.23" y="-15.4" font-family="Times-12" font-size="14.00"> &#160;Exports</text>
<g id="clust1" class="cluster">
<title>cluster_AppModule</title>
<polygon fill="none" stroke="black" stroke-dasharray="1,5" points="2505,-203 2505,-415 3134,-415 3134,-203 2505,-203"/>
</g>
<g id="clust2" class="cluster">
<title>cluster_AppModule_declarations</title>
<polygon fill="none" stroke="black" points="2513,-211 2513,-263 2758,-263 2758,-211 2513,-211"/>
</g>
<g id="clust5" class="cluster">
<title>cluster_AppModule_imports</title>
<polygon fill="none" stroke="black" points="2766,-211 2766,-263 3126,-263 3126,-211 2766,-211"/>
</g>
<g id="clust7" class="cluster">
<title>cluster_AppModule_bootstrap</title>
<polygon fill="none" stroke="black" points="2574,-355 2574,-407 2698,-407 2698,-355 2574,-355"/>
</g>
<g id="clust15" class="cluster">
<title>cluster_AppServerModule</title>
<polygon fill="none" stroke="black" stroke-dasharray="1,5" points="2361,-287 2361,-339 2497,-339 2497,-287 2361,-287"/>
</g>
<g id="clust21" class="cluster">
<title>cluster_AuthModule</title>
<polygon fill="none" stroke="black" stroke-dasharray="1,5" points="2548,-70 2548,-138 3134,-138 3134,-70 2548,-70"/>
</g>
<g id="clust22" class="cluster">
<title>cluster_AuthModule_declarations</title>
<polygon fill="none" stroke="black" points="2556,-78 2556,-130 2970,-130 2970,-78 2556,-78"/>
</g>
<g id="clust26" class="cluster">
<title>cluster_AuthModule_imports</title>
<polygon fill="none" stroke="black" points="2978,-78 2978,-130 3126,-130 3126,-78 2978,-78"/>
</g>
<g id="clust36" class="cluster">
<title>cluster_ContactModule</title>
<polygon fill="none" stroke="black" stroke-dasharray="1,5" points="3142,-70 3142,-271 3302,-271 3302,-70 3142,-70"/>
</g>
<g id="clust37" class="cluster">
<title>cluster_ContactModule_declarations</title>
<polygon fill="none" stroke="black" points="3150,-78 3150,-130 3290,-130 3290,-78 3150,-78"/>
</g>
<g id="clust40" class="cluster">
<title>cluster_ContactModule_exports</title>
<polygon fill="none" stroke="black" points="3150,-211 3150,-263 3294,-263 3294,-211 3150,-211"/>
</g>
<g id="clust43" class="cluster">
<title>cluster_GuidesModule</title>
<polygon fill="none" stroke="black" stroke-dasharray="1,5" points="8,-70 8,-195 2540,-195 2540,-70 8,-70"/>
</g>
<g id="clust44" class="cluster">
<title>cluster_GuidesModule_declarations</title>
<polygon fill="none" stroke="black" points="16,-78 16,-130 2532,-130 2532,-78 16,-78"/>
</g>
<g id="clust68" class="cluster">
<title>cluster_HomeModule</title>
<polygon fill="none" stroke="black" stroke-dasharray="1,5" points="3310,-70 3310,-271 3462,-271 3462,-70 3310,-70"/>
</g>
<g id="clust69" class="cluster">
<title>cluster_HomeModule_declarations</title>
<polygon fill="none" stroke="black" points="3318,-78 3318,-130 3450,-130 3450,-78 3318,-78"/>
</g>
<g id="clust72" class="cluster">
<title>cluster_HomeModule_exports</title>
<polygon fill="none" stroke="black" points="3318,-211 3318,-263 3454,-263 3454,-211 3318,-211"/>
</g>
<g id="clust75" class="cluster">
<title>cluster_PagesModule</title>
<polygon fill="none" stroke="black" stroke-dasharray="1,5" points="3142,-279 3142,-347 4186,-347 4186,-279 3142,-279"/>
</g>
<g id="clust76" class="cluster">
<title>cluster_PagesModule_declarations</title>
<polygon fill="none" stroke="black" points="3627,-287 3627,-339 3904,-339 3904,-287 3627,-287"/>
</g>
<g id="clust79" class="cluster">
<title>cluster_PagesModule_imports</title>
<polygon fill="none" stroke="black" points="3912,-287 3912,-339 4178,-339 4178,-287 3912,-287"/>
</g>
<g id="clust80" class="cluster">
<title>cluster_PagesModule_exports</title>
<polygon fill="none" stroke="black" points="3150,-287 3150,-339 3619,-339 3619,-287 3150,-287"/>
</g>
<g id="clust101" class="cluster">
<title>cluster_ShopModule</title>
<polygon fill="none" stroke="black" stroke-dasharray="1,5" points="3470,-203 3470,-271 5859,-271 5859,-203 3470,-203"/>
</g>
<g id="clust102" class="cluster">
<title>cluster_ShopModule_declarations</title>
<polygon fill="none" stroke="black" points="3478,-211 3478,-263 5851,-263 5851,-211 3478,-211"/>
</g>
<!-- AppComponent -->
<g id="node1" class="node">
<title>AppComponent</title>
<polygon fill="#ffffb3" stroke="black" points="2749.94,-255 2644.06,-255 2644.06,-219 2749.94,-219 2749.94,-255"/>
<text text-anchor="middle" x="2697" y="-232.8" font-family="Times,serif" font-size="14.00">AppComponent</text>
</g>
<!-- AppModule -->
<g id="node3" class="node">
<title>AppModule</title>
<polygon fill="#8dd3c7" stroke="black" points="2738.66,-331 2735.66,-335 2714.66,-335 2711.66,-331 2655.34,-331 2655.34,-295 2738.66,-295 2738.66,-331"/>
<text text-anchor="middle" x="2697" y="-308.8" font-family="Times,serif" font-size="14.00">AppModule</text>
</g>
<!-- AppComponent&#45;&gt;AppModule -->
<g id="edge1" class="edge">
<title>AppComponent&#45;&gt;AppModule</title>
<path fill="none" stroke="black" d="M2697,-255.01C2697,-255.01 2697,-284.85 2697,-284.85"/>
<polygon fill="black" stroke="black" points="2693.5,-284.85 2697,-294.85 2700.5,-284.85 2693.5,-284.85"/>
</g>
<!-- CartComponent -->
<g id="node2" class="node">
<title>CartComponent</title>
<polygon fill="#ffffb3" stroke="black" points="2626.94,-255 2521.06,-255 2521.06,-219 2626.94,-219 2626.94,-255"/>
<text text-anchor="middle" x="2574" y="-232.8" font-family="Times,serif" font-size="14.00">CartComponent</text>
</g>
<!-- CartComponent&#45;&gt;AppModule -->
<g id="edge2" class="edge">
<title>CartComponent&#45;&gt;AppModule</title>
<path fill="none" stroke="black" d="M2611.66,-255.31C2611.66,-275.15 2611.66,-304 2611.66,-304 2611.66,-304 2645.33,-304 2645.33,-304"/>
<polygon fill="black" stroke="black" points="2645.33,-307.5 2655.33,-304 2645.33,-300.5 2645.33,-307.5"/>
</g>
<!-- AppComponent  -->
<g id="node7" class="node">
<title>AppComponent </title>
<polygon fill="#80b1d3" stroke="black" points="2690.44,-399 2581.56,-399 2581.56,-363 2690.44,-363 2690.44,-399"/>
<text text-anchor="middle" x="2636" y="-376.8" font-family="Times,serif" font-size="14.00">AppComponent </text>
</g>
<!-- AppModule&#45;&gt;AppComponent  -->
<g id="edge6" class="edge">
<title>AppModule&#45;&gt;AppComponent </title>
<path fill="none" stroke="black" stroke-dasharray="1,5" d="M2672.82,-331.22C2672.82,-331.22 2672.82,-352.73 2672.82,-352.73"/>
<polygon fill="black" stroke="black" points="2669.32,-352.73 2672.82,-362.73 2676.32,-352.73 2669.32,-352.73"/>
</g>
<!-- AppServerModule -->
<g id="node8" class="node">
<title>AppServerModule</title>
<polygon fill="#8dd3c7" stroke="black" points="2489.19,-331 2486.19,-335 2465.19,-335 2462.19,-331 2368.81,-331 2368.81,-295 2489.19,-295 2489.19,-331"/>
<text text-anchor="middle" x="2429" y="-308.8" font-family="Times,serif" font-size="14.00">AppServerModule</text>
</g>
<!-- AppModule&#45;&gt;AppServerModule -->
<g id="edge7" class="edge">
<title>AppModule&#45;&gt;AppServerModule</title>
<path fill="none" stroke="black" d="M2655.12,-313C2655.12,-313 2499.23,-313 2499.23,-313"/>
<polygon fill="black" stroke="black" points="2499.23,-309.5 2489.23,-313 2499.23,-316.5 2499.23,-309.5"/>
</g>
<!-- AppRoutingModule -->
<g id="node4" class="node">
<title>AppRoutingModule</title>
<polygon fill="#8dd3c7" stroke="black" points="2902.27,-255 2899.27,-259 2878.27,-259 2875.27,-255 2773.73,-255 2773.73,-219 2902.27,-219 2902.27,-255"/>
<text text-anchor="middle" x="2838" y="-232.8" font-family="Times,serif" font-size="14.00">AppRoutingModule</text>
</g>
<!-- AppRoutingModule&#45;&gt;AppModule -->
<g id="edge3" class="edge">
<title>AppRoutingModule&#45;&gt;AppModule</title>
<path fill="none" stroke="black" d="M2838,-255.03C2838,-274.58 2838,-303 2838,-303 2838,-303 2748.92,-303 2748.92,-303"/>
<polygon fill="black" stroke="black" points="2748.92,-299.5 2738.92,-303 2748.92,-306.5 2748.92,-299.5"/>
</g>
<!-- AuthModule -->
<g id="node5" class="node">
<title>AuthModule</title>
<polygon fill="#8dd3c7" stroke="black" points="3007.55,-255 3004.55,-259 2983.55,-259 2980.55,-255 2920.45,-255 2920.45,-219 3007.55,-219 3007.55,-255"/>
<text text-anchor="middle" x="2964" y="-232.8" font-family="Times,serif" font-size="14.00">AuthModule</text>
</g>
<!-- AuthModule&#45;&gt;AppModule -->
<g id="edge4" class="edge">
<title>AuthModule&#45;&gt;AppModule</title>
<path fill="none" stroke="black" d="M2964,-255.04C2964,-276.66 2964,-310 2964,-310 2964,-310 2748.72,-310 2748.72,-310"/>
<polygon fill="black" stroke="black" points="2748.72,-306.5 2738.72,-310 2748.72,-313.5 2748.72,-306.5"/>
</g>
<!-- PagesModule -->
<g id="node6" class="node">
<title>PagesModule</title>
<polygon fill="#8dd3c7" stroke="black" points="3118.21,-255 3115.21,-259 3094.21,-259 3091.21,-255 3025.79,-255 3025.79,-219 3118.21,-219 3118.21,-255"/>
<text text-anchor="middle" x="3072" y="-232.8" font-family="Times,serif" font-size="14.00">PagesModule</text>
</g>
<!-- PagesModule&#45;&gt;AppModule -->
<g id="edge5" class="edge">
<title>PagesModule&#45;&gt;AppModule</title>
<path fill="none" stroke="black" d="M3099.66,-255.15C3099.66,-278.76 3099.66,-317 3099.66,-317 3099.66,-317 2748.95,-317 2748.95,-317"/>
<polygon fill="black" stroke="black" points="2748.95,-313.5 2738.95,-317 2748.95,-320.5 2748.95,-313.5"/>
</g>
<!-- ContactModule  -->
<g id="node37" class="node">
<title>ContactModule </title>
<polygon fill="#fb8072" stroke="black" points="3385.1,-331 3278.9,-331 3278.9,-295 3385.1,-295 3385.1,-331"/>
<text text-anchor="middle" x="3332" y="-308.8" font-family="Times,serif" font-size="14.00">ContactModule </text>
</g>
<!-- PagesModule&#45;&gt;ContactModule  -->
<g id="edge40" class="edge">
<title>PagesModule&#45;&gt;ContactModule </title>
<path fill="none" stroke="black" stroke-dasharray="5,2" d="M3072,-255.01C3072,-271.05 3072,-292 3072,-292 3072,-292 3282.45,-292 3282.45,-292 3282.45,-292 3282.45,-292.29 3282.45,-292.29"/>
<polygon fill="black" stroke="black" points="3278.95,-284.92 3282.45,-294.92 3285.95,-284.92 3278.95,-284.92"/>
</g>
<!-- GuidesModule  -->
<g id="node38" class="node">
<title>GuidesModule </title>
<polygon fill="#fb8072" stroke="black" points="3260.21,-331 3157.79,-331 3157.79,-295 3260.21,-295 3260.21,-331"/>
<text text-anchor="middle" x="3209" y="-308.8" font-family="Times,serif" font-size="14.00">GuidesModule </text>
</g>
<!-- PagesModule&#45;&gt;GuidesModule  -->
<g id="edge41" class="edge">
<title>PagesModule&#45;&gt;GuidesModule </title>
<path fill="none" stroke="black" stroke-dasharray="5,2" d="M3108.88,-255.03C3108.88,-280.51 3108.88,-324 3108.88,-324 3108.88,-324 3147.77,-324 3147.77,-324"/>
<polygon fill="black" stroke="black" points="3147.77,-327.5 3157.77,-324 3147.77,-320.5 3147.77,-327.5"/>
</g>
<!-- HomeModule  -->
<g id="node39" class="node">
<title>HomeModule </title>
<polygon fill="#fb8072" stroke="black" points="3610.76,-331 3513.24,-331 3513.24,-295 3610.76,-295 3610.76,-331"/>
<text text-anchor="middle" x="3562" y="-308.8" font-family="Times,serif" font-size="14.00">HomeModule </text>
</g>
<!-- PagesModule&#45;&gt;HomeModule  -->
<g id="edge42" class="edge">
<title>PagesModule&#45;&gt;HomeModule </title>
<path fill="none" stroke="black" stroke-dasharray="5,2" d="M3090.44,-255.15C3090.44,-268.74 3090.44,-285 3090.44,-285 3090.44,-285 3562,-285 3562,-285 3562,-285 3562,-285.98 3562,-285.98"/>
<polygon fill="black" stroke="black" points="3558.5,-284.79 3562,-294.79 3565.5,-284.79 3558.5,-284.79"/>
</g>
<!-- ShopModule  -->
<g id="node40" class="node">
<title>ShopModule </title>
<polygon fill="#fb8072" stroke="black" points="3494.83,-331 3403.17,-331 3403.17,-295 3494.83,-295 3494.83,-331"/>
<text text-anchor="middle" x="3449" y="-308.8" font-family="Times,serif" font-size="14.00">ShopModule </text>
</g>
<!-- PagesModule&#45;&gt;ShopModule  -->
<g id="edge43" class="edge">
<title>PagesModule&#45;&gt;ShopModule </title>
<path fill="none" stroke="black" stroke-dasharray="5,2" d="M3081.22,-255.12C3081.22,-269.78 3081.22,-288 3081.22,-288 3081.22,-288 3424.3,-288 3424.3,-288 3424.3,-288 3424.3,-288.68 3424.3,-288.68"/>
<polygon fill="black" stroke="black" points="3420.8,-284.83 3424.3,-294.83 3427.8,-284.83 3420.8,-284.83"/>
</g>
<!-- AppServerModule&#45;&gt;AppComponent  -->
<g id="edge8" class="edge">
<title>AppServerModule&#45;&gt;AppComponent </title>
<path fill="none" stroke="black" stroke-dasharray="1,5" d="M2489.5,-322C2537.51,-322 2596.59,-322 2596.59,-322 2596.59,-322 2596.59,-352.98 2596.59,-352.98"/>
<polygon fill="black" stroke="black" points="2593.09,-352.98 2596.59,-362.98 2600.09,-352.98 2593.09,-352.98"/>
</g>
<!-- LoginComponent -->
<g id="node9" class="node">
<title>LoginComponent</title>
<polygon fill="#ffffb3" stroke="black" points="2962.28,-122 2847.72,-122 2847.72,-86 2962.28,-86 2962.28,-122"/>
<text text-anchor="middle" x="2905" y="-99.8" font-family="Times,serif" font-size="14.00">LoginComponent</text>
</g>
<!-- LoginComponent&#45;&gt;AuthModule -->
<g id="edge9" class="edge">
<title>LoginComponent&#45;&gt;AuthModule</title>
<path fill="none" stroke="black" d="M2951.85,-122.21C2951.85,-122.21 2951.85,-208.58 2951.85,-208.58"/>
<polygon fill="black" stroke="black" points="2948.35,-208.58 2951.85,-218.58 2955.35,-208.58 2948.35,-208.58"/>
</g>
<!-- ProfileComponent -->
<g id="node10" class="node">
<title>ProfileComponent</title>
<polygon fill="#ffffb3" stroke="black" points="2683.93,-122 2564.07,-122 2564.07,-86 2683.93,-86 2683.93,-122"/>
<text text-anchor="middle" x="2624" y="-99.8" font-family="Times,serif" font-size="14.00">ProfileComponent</text>
</g>
<!-- ProfileComponent&#45;&gt;AuthModule -->
<g id="edge10" class="edge">
<title>ProfileComponent&#45;&gt;AuthModule</title>
<path fill="none" stroke="black" d="M2664,-122.13C2664,-132.71 2664,-144 2664,-144 2664,-144 2930.77,-144 2930.77,-144 2930.77,-144 2930.77,-208.63 2930.77,-208.63"/>
<polygon fill="black" stroke="black" points="2927.27,-208.63 2930.77,-218.63 2934.27,-208.63 2927.27,-208.63"/>
</g>
<!-- RegisterComponent -->
<g id="node11" class="node">
<title>RegisterComponent</title>
<polygon fill="#ffffb3" stroke="black" points="2829.98,-122 2702.02,-122 2702.02,-86 2829.98,-86 2829.98,-122"/>
<text text-anchor="middle" x="2766" y="-99.8" font-family="Times,serif" font-size="14.00">RegisterComponent</text>
</g>
<!-- RegisterComponent&#45;&gt;AuthModule -->
<g id="edge11" class="edge">
<title>RegisterComponent&#45;&gt;AuthModule</title>
<path fill="none" stroke="black" d="M2801.8,-122.04C2801.8,-129.75 2801.8,-137 2801.8,-137 2801.8,-137 2941.31,-137 2941.31,-137 2941.31,-137 2941.31,-208.66 2941.31,-208.66"/>
<polygon fill="black" stroke="black" points="2937.81,-208.66 2941.31,-218.66 2944.81,-208.66 2937.81,-208.66"/>
</g>
<!-- AuthRoutingModule -->
<g id="node12" class="node">
<title>AuthRoutingModule</title>
<polygon fill="#8dd3c7" stroke="black" points="3118.17,-122 3115.17,-126 3094.17,-126 3091.17,-122 2985.83,-122 2985.83,-86 3118.17,-86 3118.17,-122"/>
<text text-anchor="middle" x="3052" y="-99.8" font-family="Times,serif" font-size="14.00">AuthRoutingModule</text>
</g>
<!-- AuthRoutingModule&#45;&gt;AuthModule -->
<g id="edge12" class="edge">
<title>AuthRoutingModule&#45;&gt;AuthModule</title>
<path fill="none" stroke="black" d="M3000.4,-122.21C3000.4,-122.21 3000.4,-208.58 3000.4,-208.58"/>
<polygon fill="black" stroke="black" points="2996.9,-208.58 3000.4,-218.58 3003.9,-208.58 2996.9,-208.58"/>
</g>
<!-- ContactModule -->
<g id="node14" class="node">
<title>ContactModule</title>
<polygon fill="#8dd3c7" stroke="black" points="3262.6,-187 3259.6,-191 3238.6,-191 3235.6,-187 3159.4,-187 3159.4,-151 3262.6,-151 3262.6,-187"/>
<text text-anchor="middle" x="3211" y="-164.8" font-family="Times,serif" font-size="14.00">ContactModule</text>
</g>
<!-- AuthRoutingModule&#45;&gt;ContactModule -->
<g id="edge14" class="edge">
<title>AuthRoutingModule&#45;&gt;ContactModule</title>
<path fill="none" stroke="black" d="M3072,-122.04C3072,-143.66 3072,-177 3072,-177 3072,-177 3149.24,-177 3149.24,-177"/>
<polygon fill="black" stroke="black" points="3149.24,-180.5 3159.24,-177 3149.24,-173.5 3149.24,-180.5"/>
</g>
<!-- GuidesModule -->
<g id="node29" class="node">
<title>GuidesModule</title>
<polygon fill="#8dd3c7" stroke="black" points="1518.71,-187 1515.71,-191 1494.71,-191 1491.71,-187 1419.29,-187 1419.29,-151 1518.71,-151 1518.71,-187"/>
<text text-anchor="middle" x="1469" y="-164.8" font-family="Times,serif" font-size="14.00">GuidesModule</text>
</g>
<!-- AuthRoutingModule&#45;&gt;GuidesModule -->
<g id="edge29" class="edge">
<title>AuthRoutingModule&#45;&gt;GuidesModule</title>
<path fill="none" stroke="black" d="M2993.04,-122.13C2993.04,-142.57 2993.04,-173 2993.04,-173 2993.04,-173 1528.84,-173 1528.84,-173"/>
<polygon fill="black" stroke="black" points="1528.84,-169.5 1518.84,-173 1528.84,-176.5 1528.84,-169.5"/>
</g>
<!-- HomeModule -->
<g id="node31" class="node">
<title>HomeModule</title>
<polygon fill="#8dd3c7" stroke="black" points="3420.76,-187 3417.76,-191 3396.76,-191 3393.76,-187 3327.24,-187 3327.24,-151 3420.76,-151 3420.76,-187"/>
<text text-anchor="middle" x="3374" y="-164.8" font-family="Times,serif" font-size="14.00">HomeModule</text>
</g>
<!-- AuthRoutingModule&#45;&gt;HomeModule -->
<g id="edge31" class="edge">
<title>AuthRoutingModule&#45;&gt;HomeModule</title>
<path fill="none" stroke="black" d="M3056.63,-122.06C3056.63,-126.49 3056.63,-130 3056.63,-130 3056.63,-130 3358.37,-130 3358.37,-130 3358.37,-130 3358.37,-140.87 3358.37,-140.87"/>
<polygon fill="black" stroke="black" points="3354.87,-140.87 3358.37,-150.87 3361.87,-140.87 3354.87,-140.87"/>
</g>
<!-- ContactComponent -->
<g id="node13" class="node">
<title>ContactComponent</title>
<polygon fill="#ffffb3" stroke="black" points="3282.38,-122 3157.62,-122 3157.62,-86 3282.38,-86 3282.38,-122"/>
<text text-anchor="middle" x="3220" y="-99.8" font-family="Times,serif" font-size="14.00">ContactComponent</text>
</g>
<!-- ContactComponent&#45;&gt;ContactModule -->
<g id="edge13" class="edge">
<title>ContactComponent&#45;&gt;ContactModule</title>
<path fill="none" stroke="black" d="M3211,-122.11C3211,-122.11 3211,-140.99 3211,-140.99"/>
<polygon fill="black" stroke="black" points="3207.5,-140.99 3211,-150.99 3214.5,-140.99 3207.5,-140.99"/>
</g>
<!-- ContactModule&#45;&gt;PagesModule -->
<g id="edge35" class="edge">
<title>ContactModule&#45;&gt;PagesModule</title>
<path fill="none" stroke="black" d="M3159.29,-184C3125.41,-184 3087.37,-184 3087.37,-184 3087.37,-184 3087.37,-208.76 3087.37,-208.76"/>
<polygon fill="black" stroke="black" points="3083.87,-208.76 3087.37,-218.76 3090.87,-208.76 3083.87,-208.76"/>
</g>
<!-- ContactComponent  -->
<g id="node15" class="node">
<title>ContactComponent </title>
<polygon fill="#fb8072" stroke="black" points="3286.38,-255 3157.62,-255 3157.62,-219 3286.38,-219 3286.38,-255"/>
<text text-anchor="middle" x="3222" y="-232.8" font-family="Times,serif" font-size="14.00">ContactComponent </text>
</g>
<!-- ContactModule&#45;&gt;ContactComponent  -->
<g id="edge15" class="edge">
<title>ContactModule&#45;&gt;ContactComponent </title>
<path fill="none" stroke="black" stroke-dasharray="5,2" d="M3211,-187.22C3211,-187.22 3211,-208.73 3211,-208.73"/>
<polygon fill="black" stroke="black" points="3207.5,-208.73 3211,-218.73 3214.5,-208.73 3207.5,-208.73"/>
</g>
<!-- AllguidesComponent -->
<g id="node16" class="node">
<title>AllguidesComponent</title>
<polygon fill="#ffffb3" stroke="black" points="159.77,-122 24.23,-122 24.23,-86 159.77,-86 159.77,-122"/>
<text text-anchor="middle" x="92" y="-99.8" font-family="Times,serif" font-size="14.00">AllguidesComponent</text>
</g>
<!-- AllguidesComponent&#45;&gt;GuidesModule -->
<g id="edge16" class="edge">
<title>AllguidesComponent&#45;&gt;GuidesModule</title>
<path fill="none" stroke="black" d="M92,-122.32C92,-145.66 92,-183 92,-183 92,-183 1409.18,-183 1409.18,-183"/>
<polygon fill="black" stroke="black" points="1409.18,-186.5 1419.18,-183 1409.18,-179.5 1409.18,-186.5"/>
</g>
<!-- GuidesarachnidaComponent -->
<g id="node17" class="node">
<title>GuidesarachnidaComponent</title>
<polygon fill="#ffffb3" stroke="black" points="2523.9,-122 2348.1,-122 2348.1,-86 2523.9,-86 2523.9,-122"/>
<text text-anchor="middle" x="2436" y="-99.8" font-family="Times,serif" font-size="14.00">GuidesarachnidaComponent</text>
</g>
<!-- GuidesarachnidaComponent&#45;&gt;GuidesModule -->
<g id="edge17" class="edge">
<title>GuidesarachnidaComponent&#45;&gt;GuidesModule</title>
<path fill="none" stroke="black" d="M2358.6,-122.11C2358.6,-141.34 2358.6,-169 2358.6,-169 2358.6,-169 1528.74,-169 1528.74,-169"/>
<polygon fill="black" stroke="black" points="1528.74,-165.5 1518.74,-169 1528.74,-172.5 1528.74,-165.5"/>
</g>
<!-- GuidesblattodeaComponent -->
<g id="node18" class="node">
<title>GuidesblattodeaComponent</title>
<polygon fill="#ffffb3" stroke="black" points="2330.3,-122 2157.7,-122 2157.7,-86 2330.3,-86 2330.3,-122"/>
<text text-anchor="middle" x="2244" y="-99.8" font-family="Times,serif" font-size="14.00">GuidesblattodeaComponent</text>
</g>
<!-- GuidesblattodeaComponent&#45;&gt;GuidesModule -->
<g id="edge18" class="edge">
<title>GuidesblattodeaComponent&#45;&gt;GuidesModule</title>
<path fill="none" stroke="black" d="M2244,-122.27C2244,-140.56 2244,-166 2244,-166 2244,-166 1528.66,-166 1528.66,-166"/>
<polygon fill="black" stroke="black" points="1528.66,-162.5 1518.66,-166 1528.66,-169.5 1528.66,-162.5"/>
</g>
<!-- GuideschilopodaComponent -->
<g id="node19" class="node">
<title>GuideschilopodaComponent</title>
<polygon fill="#ffffb3" stroke="black" points="2140.2,-122 1963.8,-122 1963.8,-86 2140.2,-86 2140.2,-122"/>
<text text-anchor="middle" x="2052" y="-99.8" font-family="Times,serif" font-size="14.00">GuideschilopodaComponent</text>
</g>
<!-- GuideschilopodaComponent&#45;&gt;GuidesModule -->
<g id="edge19" class="edge">
<title>GuideschilopodaComponent&#45;&gt;GuidesModule</title>
<path fill="none" stroke="black" d="M2052,-122.03C2052,-139.06 2052,-162 2052,-162 2052,-162 1528.71,-162 1528.71,-162"/>
<polygon fill="black" stroke="black" points="1528.71,-158.5 1518.71,-162 1528.71,-165.5 1528.71,-158.5"/>
</g>
<!-- GuidescoleopteraComponent -->
<g id="node20" class="node">
<title>GuidescoleopteraComponent</title>
<polygon fill="#ffffb3" stroke="black" points="1945.79,-122 1766.21,-122 1766.21,-86 1945.79,-86 1945.79,-122"/>
<text text-anchor="middle" x="1856" y="-99.8" font-family="Times,serif" font-size="14.00">GuidescoleopteraComponent</text>
</g>
<!-- GuidescoleopteraComponent&#45;&gt;GuidesModule -->
<g id="edge20" class="edge">
<title>GuidescoleopteraComponent&#45;&gt;GuidesModule</title>
<path fill="none" stroke="black" d="M1856,-122.01C1856,-138.05 1856,-159 1856,-159 1856,-159 1528.8,-159 1528.8,-159"/>
<polygon fill="black" stroke="black" points="1528.8,-155.5 1518.8,-159 1528.8,-162.5 1528.8,-155.5"/>
</g>
<!-- GuidescrustaceaComponent -->
<g id="node21" class="node">
<title>GuidescrustaceaComponent</title>
<polygon fill="#ffffb3" stroke="black" points="1748.56,-122 1575.44,-122 1575.44,-86 1748.56,-86 1748.56,-122"/>
<text text-anchor="middle" x="1662" y="-99.8" font-family="Times,serif" font-size="14.00">GuidescrustaceaComponent</text>
</g>
<!-- GuidescrustaceaComponent&#45;&gt;GuidesModule -->
<g id="edge21" class="edge">
<title>GuidescrustaceaComponent&#45;&gt;GuidesModule</title>
<path fill="none" stroke="black" d="M1662,-122.12C1662,-136.78 1662,-155 1662,-155 1662,-155 1528.7,-155 1528.7,-155"/>
<polygon fill="black" stroke="black" points="1528.7,-151.5 1518.7,-155 1528.7,-158.5 1528.7,-151.5"/>
</g>
<!-- GuidesdiplopodaComponent -->
<g id="node22" class="node">
<title>GuidesdiplopodaComponent</title>
<polygon fill="#ffffb3" stroke="black" points="1557.48,-122 1380.52,-122 1380.52,-86 1557.48,-86 1557.48,-122"/>
<text text-anchor="middle" x="1469" y="-99.8" font-family="Times,serif" font-size="14.00">GuidesdiplopodaComponent</text>
</g>
<!-- GuidesdiplopodaComponent&#45;&gt;GuidesModule -->
<g id="edge22" class="edge">
<title>GuidesdiplopodaComponent&#45;&gt;GuidesModule</title>
<path fill="none" stroke="black" d="M1469,-122.11C1469,-122.11 1469,-140.99 1469,-140.99"/>
<polygon fill="black" stroke="black" points="1465.5,-140.99 1469,-150.99 1472.5,-140.99 1465.5,-140.99"/>
</g>
<!-- GuidesgastropodaComponent -->
<g id="node23" class="node">
<title>GuidesgastropodaComponent</title>
<polygon fill="#ffffb3" stroke="black" points="1362.41,-122 1179.59,-122 1179.59,-86 1362.41,-86 1362.41,-122"/>
<text text-anchor="middle" x="1271" y="-99.8" font-family="Times,serif" font-size="14.00">GuidesgastropodaComponent</text>
</g>
<!-- GuidesgastropodaComponent&#45;&gt;GuidesModule -->
<g id="edge23" class="edge">
<title>GuidesgastropodaComponent&#45;&gt;GuidesModule</title>
<path fill="none" stroke="black" d="M1271,-122.19C1271,-137.18 1271,-156 1271,-156 1271,-156 1409.29,-156 1409.29,-156"/>
<polygon fill="black" stroke="black" points="1409.29,-159.5 1419.29,-156 1409.29,-152.5 1409.29,-159.5"/>
</g>
<!-- GuideshymenopteraComponent -->
<g id="node24" class="node">
<title>GuideshymenopteraComponent</title>
<polygon fill="#ffffb3" stroke="black" points="1162.07,-122 967.93,-122 967.93,-86 1162.07,-86 1162.07,-122"/>
<text text-anchor="middle" x="1065" y="-99.8" font-family="Times,serif" font-size="14.00">GuideshymenopteraComponent</text>
</g>
<!-- GuideshymenopteraComponent&#45;&gt;GuidesModule -->
<g id="edge24" class="edge">
<title>GuideshymenopteraComponent&#45;&gt;GuidesModule</title>
<path fill="none" stroke="black" d="M1065,-122.03C1065,-138.4 1065,-160 1065,-160 1065,-160 1409.06,-160 1409.06,-160"/>
<polygon fill="black" stroke="black" points="1409.06,-163.5 1419.06,-160 1409.06,-156.5 1409.06,-163.5"/>
</g>
<!-- GuidesisopodaComponent -->
<g id="node25" class="node">
<title>GuidesisopodaComponent</title>
<polygon fill="#ffffb3" stroke="black" points="950.04,-122 785.96,-122 785.96,-86 950.04,-86 950.04,-122"/>
<text text-anchor="middle" x="868" y="-99.8" font-family="Times,serif" font-size="14.00">GuidesisopodaComponent</text>
</g>
<!-- GuidesisopodaComponent&#45;&gt;GuidesModule -->
<g id="edge25" class="edge">
<title>GuidesisopodaComponent&#45;&gt;GuidesModule</title>
<path fill="none" stroke="black" d="M868,-122.3C868,-140.27 868,-165 868,-165 868,-165 1409.31,-165 1409.31,-165"/>
<polygon fill="black" stroke="black" points="1409.31,-168.5 1419.31,-165 1409.31,-161.5 1409.31,-168.5"/>
</g>
<!-- GuideslepidopteraComponent -->
<g id="node26" class="node">
<title>GuideslepidopteraComponent</title>
<polygon fill="#ffffb3" stroke="black" points="767.97,-122 584.03,-122 584.03,-86 767.97,-86 767.97,-122"/>
<text text-anchor="middle" x="676" y="-99.8" font-family="Times,serif" font-size="14.00">GuideslepidopteraComponent</text>
</g>
<!-- GuideslepidopteraComponent&#45;&gt;GuidesModule -->
<g id="edge26" class="edge">
<title>GuideslepidopteraComponent&#45;&gt;GuidesModule</title>
<path fill="none" stroke="black" d="M676,-122.11C676,-141.34 676,-169 676,-169 676,-169 1409.39,-169 1409.39,-169"/>
<polygon fill="black" stroke="black" points="1409.39,-172.5 1419.39,-169 1409.39,-165.5 1409.39,-172.5"/>
</g>
<!-- GuidesmantodeaComponent -->
<g id="node27" class="node">
<title>GuidesmantodeaComponent</title>
<polygon fill="#ffffb3" stroke="black" points="565.91,-122 390.09,-122 390.09,-86 565.91,-86 565.91,-122"/>
<text text-anchor="middle" x="478" y="-99.8" font-family="Times,serif" font-size="14.00">GuidesmantodeaComponent</text>
</g>
<!-- GuidesmantodeaComponent&#45;&gt;GuidesModule -->
<g id="edge27" class="edge">
<title>GuidesmantodeaComponent&#45;&gt;GuidesModule</title>
<path fill="none" stroke="black" d="M478,-122.03C478,-142.77 478,-174 478,-174 478,-174 1409.18,-174 1409.18,-174"/>
<polygon fill="black" stroke="black" points="1409.18,-177.5 1419.18,-174 1409.18,-170.5 1409.18,-177.5"/>
</g>
<!-- GuidesphasmatodeaComponent -->
<g id="node28" class="node">
<title>GuidesphasmatodeaComponent</title>
<polygon fill="#ffffb3" stroke="black" points="372.07,-122 177.93,-122 177.93,-86 372.07,-86 372.07,-122"/>
<text text-anchor="middle" x="275" y="-99.8" font-family="Times,serif" font-size="14.00">GuidesphasmatodeaComponent</text>
</g>
<!-- GuidesphasmatodeaComponent&#45;&gt;GuidesModule -->
<g id="edge28" class="edge">
<title>GuidesphasmatodeaComponent&#45;&gt;GuidesModule</title>
<path fill="none" stroke="black" d="M275,-122.29C275,-144.21 275,-178 275,-178 275,-178 1409.22,-178 1409.22,-178"/>
<polygon fill="black" stroke="black" points="1409.22,-181.5 1419.22,-178 1409.22,-174.5 1409.22,-181.5"/>
</g>
<!-- GuidesModule&#45;&gt;PagesModule -->
<g id="edge36" class="edge">
<title>GuidesModule&#45;&gt;PagesModule</title>
<path fill="none" stroke="black" d="M1518.65,-180C1785.91,-180 3041.26,-180 3041.26,-180 3041.26,-180 3041.26,-208.96 3041.26,-208.96"/>
<polygon fill="black" stroke="black" points="3037.76,-208.96 3041.26,-218.96 3044.76,-208.96 3037.76,-208.96"/>
</g>
<!-- HomeComponent -->
<g id="node30" class="node">
<title>HomeComponent</title>
<polygon fill="#ffffb3" stroke="black" points="3441.55,-122 3326.45,-122 3326.45,-86 3441.55,-86 3441.55,-122"/>
<text text-anchor="middle" x="3384" y="-99.8" font-family="Times,serif" font-size="14.00">HomeComponent</text>
</g>
<!-- HomeComponent&#45;&gt;HomeModule -->
<g id="edge30" class="edge">
<title>HomeComponent&#45;&gt;HomeModule</title>
<path fill="none" stroke="black" d="M3389.63,-122.11C3389.63,-122.11 3389.63,-140.99 3389.63,-140.99"/>
<polygon fill="black" stroke="black" points="3386.13,-140.99 3389.63,-150.99 3393.13,-140.99 3386.13,-140.99"/>
</g>
<!-- HomeModule&#45;&gt;PagesModule -->
<g id="edge38" class="edge">
<title>HomeModule&#45;&gt;PagesModule</title>
<path fill="none" stroke="black" d="M3358.37,-187.19C3358.37,-195.28 3358.37,-203 3358.37,-203 3358.37,-203 3102.74,-203 3102.74,-203 3102.74,-203 3102.74,-208.81 3102.74,-208.81"/>
<polygon fill="black" stroke="black" points="3099.24,-208.81 3102.74,-218.81 3106.24,-208.81 3099.24,-208.81"/>
</g>
<!-- HomeComponent  -->
<g id="node32" class="node">
<title>HomeComponent </title>
<polygon fill="#fb8072" stroke="black" points="3445.54,-255 3326.46,-255 3326.46,-219 3445.54,-219 3445.54,-255"/>
<text text-anchor="middle" x="3386" y="-232.8" font-family="Times,serif" font-size="14.00">HomeComponent </text>
</g>
<!-- HomeModule&#45;&gt;HomeComponent  -->
<g id="edge32" class="edge">
<title>HomeModule&#45;&gt;HomeComponent </title>
<path fill="none" stroke="black" stroke-dasharray="5,2" d="M3389.63,-187.22C3389.63,-187.22 3389.63,-208.73 3389.63,-208.73"/>
<polygon fill="black" stroke="black" points="3386.13,-208.73 3389.63,-218.73 3393.13,-208.73 3386.13,-208.73"/>
</g>
<!-- BlogComponent -->
<g id="node33" class="node">
<title>BlogComponent</title>
<polygon fill="#ffffb3" stroke="black" points="3896.06,-331 3787.94,-331 3787.94,-295 3896.06,-295 3896.06,-331"/>
<text text-anchor="middle" x="3842" y="-308.8" font-family="Times,serif" font-size="14.00">BlogComponent</text>
</g>
<!-- BlogComponent&#45;&gt;PagesModule -->
<g id="edge33" class="edge">
<title>BlogComponent&#45;&gt;PagesModule</title>
<path fill="none" stroke="black" d="M3805.66,-294.58C3805.66,-285.72 3805.66,-277 3805.66,-277 3805.66,-277 3044.34,-277 3044.34,-277 3044.34,-277 3044.34,-265.13 3044.34,-265.13"/>
<polygon fill="black" stroke="black" points="3047.84,-265.13 3044.34,-255.13 3040.84,-265.13 3047.84,-265.13"/>
</g>
<!-- NotfoundComponent -->
<g id="node34" class="node">
<title>NotfoundComponent</title>
<polygon fill="#ffffb3" stroke="black" points="3769.49,-331 3634.51,-331 3634.51,-295 3769.49,-295 3769.49,-331"/>
<text text-anchor="middle" x="3702" y="-308.8" font-family="Times,serif" font-size="14.00">NotfoundComponent</text>
</g>
<!-- NotfoundComponent&#45;&gt;PagesModule -->
<g id="edge34" class="edge">
<title>NotfoundComponent&#45;&gt;PagesModule</title>
<path fill="none" stroke="black" d="M3639.76,-294.76C3639.76,-287.57 3639.76,-281 3639.76,-281 3639.76,-281 3035.12,-281 3035.12,-281 3035.12,-281 3035.12,-265.15 3035.12,-265.15"/>
<polygon fill="black" stroke="black" points="3038.62,-265.15 3035.12,-255.15 3031.62,-265.15 3038.62,-265.15"/>
</g>
<!-- GuidesRoutingModule -->
<g id="node35" class="node">
<title>GuidesRoutingModule</title>
<polygon fill="#8dd3c7" stroke="black" points="4064.32,-331 4061.32,-335 4040.32,-335 4037.32,-331 3919.68,-331 3919.68,-295 4064.32,-295 4064.32,-331"/>
<text text-anchor="middle" x="3992" y="-308.8" font-family="Times,serif" font-size="14.00">GuidesRoutingModule</text>
</g>
<!-- GuidesRoutingModule&#45;&gt;PagesModule -->
<g id="edge37" class="edge">
<title>GuidesRoutingModule&#45;&gt;PagesModule</title>
<path fill="none" stroke="black" d="M3950.84,-294.87C3950.84,-284.69 3950.84,-274 3950.84,-274 3950.84,-274 3053.56,-274 3053.56,-274 3053.56,-274 3053.56,-265.07 3053.56,-265.07"/>
<polygon fill="black" stroke="black" points="3057.06,-265.07 3053.56,-255.07 3050.06,-265.07 3057.06,-265.07"/>
</g>
<!-- ShopModule -->
<g id="node36" class="node">
<title>ShopModule</title>
<polygon fill="#8dd3c7" stroke="black" points="4170.33,-331 4167.33,-335 4146.33,-335 4143.33,-331 4081.67,-331 4081.67,-295 4170.33,-295 4170.33,-331"/>
<text text-anchor="middle" x="4126" y="-308.8" font-family="Times,serif" font-size="14.00">ShopModule</text>
</g>
<!-- ShopModule&#45;&gt;PagesModule -->
<g id="edge39" class="edge">
<title>ShopModule&#45;&gt;PagesModule</title>
<path fill="none" stroke="black" d="M4096.56,-294.51C4096.56,-282.86 4096.56,-270 4096.56,-270 4096.56,-270 3062.78,-270 3062.78,-270 3062.78,-270 3062.78,-265.04 3062.78,-265.04"/>
<polygon fill="black" stroke="black" points="3066.28,-265.04 3062.78,-255.04 3059.28,-265.04 3066.28,-265.04"/>
</g>
<!-- AllshopComponent -->
<g id="node41" class="node">
<title>AllshopComponent</title>
<polygon fill="#ffffb3" stroke="black" points="5641.67,-255 5516.33,-255 5516.33,-219 5641.67,-219 5641.67,-255"/>
<text text-anchor="middle" x="5579" y="-232.8" font-family="Times,serif" font-size="14.00">AllshopComponent</text>
</g>
<!-- AllshopComponent&#45;&gt;ShopModule -->
<g id="edge44" class="edge">
<title>AllshopComponent&#45;&gt;ShopModule</title>
<path fill="none" stroke="black" d="M5579,-255.03C5579,-280.51 5579,-324 5579,-324 5579,-324 4180.28,-324 4180.28,-324"/>
<polygon fill="black" stroke="black" points="4180.28,-320.5 4170.28,-324 4180.28,-327.5 4180.28,-320.5"/>
</g>
<!-- ShoparachnidaComponent -->
<g id="node42" class="node">
<title>ShoparachnidaComponent</title>
<polygon fill="#ffffb3" stroke="black" points="5498.03,-255 5333.97,-255 5333.97,-219 5498.03,-219 5498.03,-255"/>
<text text-anchor="middle" x="5416" y="-232.8" font-family="Times,serif" font-size="14.00">ShoparachnidaComponent</text>
</g>
<!-- ShoparachnidaComponent&#45;&gt;ShopModule -->
<g id="edge45" class="edge">
<title>ShoparachnidaComponent&#45;&gt;ShopModule</title>
<path fill="none" stroke="black" d="M5416,-255.23C5416,-279.93 5416,-321 5416,-321 5416,-321 4180.4,-321 4180.4,-321"/>
<polygon fill="black" stroke="black" points="4180.4,-317.5 4170.4,-321 4180.4,-324.5 4180.4,-317.5"/>
</g>
<!-- ShopblattodeaComponent -->
<g id="node43" class="node">
<title>ShopblattodeaComponent</title>
<polygon fill="#ffffb3" stroke="black" points="5315.93,-255 5154.07,-255 5154.07,-219 5315.93,-219 5315.93,-255"/>
<text text-anchor="middle" x="5235" y="-232.8" font-family="Times,serif" font-size="14.00">ShopblattodeaComponent</text>
</g>
<!-- ShopblattodeaComponent&#45;&gt;ShopModule -->
<g id="edge46" class="edge">
<title>ShopblattodeaComponent&#45;&gt;ShopModule</title>
<path fill="none" stroke="black" d="M5235,-255.15C5235,-278.76 5235,-317 5235,-317 5235,-317 4180.5,-317 4180.5,-317"/>
<polygon fill="black" stroke="black" points="4180.5,-313.5 4170.5,-317 4180.5,-320.5 4180.5,-313.5"/>
</g>
<!-- ShopchilopodaComponent -->
<g id="node44" class="node">
<title>ShopchilopodaComponent</title>
<polygon fill="#ffffb3" stroke="black" points="5136.83,-255 4971.17,-255 4971.17,-219 5136.83,-219 5136.83,-255"/>
<text text-anchor="middle" x="5054" y="-232.8" font-family="Times,serif" font-size="14.00">ShopchilopodaComponent</text>
</g>
<!-- ShopchilopodaComponent&#45;&gt;ShopModule -->
<g id="edge47" class="edge">
<title>ShopchilopodaComponent&#45;&gt;ShopModule</title>
<path fill="none" stroke="black" d="M5054,-255.01C5054,-277.49 5054,-313 5054,-313 5054,-313 4180.45,-313 4180.45,-313"/>
<polygon fill="black" stroke="black" points="4180.45,-309.5 4170.45,-313 4180.45,-316.5 4180.45,-309.5"/>
</g>
<!-- ShopcoleopteraComponent -->
<g id="node45" class="node">
<title>ShopcoleopteraComponent</title>
<polygon fill="#ffffb3" stroke="black" points="4953.42,-255 4784.58,-255 4784.58,-219 4953.42,-219 4953.42,-255"/>
<text text-anchor="middle" x="4869" y="-232.8" font-family="Times,serif" font-size="14.00">ShopcoleopteraComponent</text>
</g>
<!-- ShopcoleopteraComponent&#45;&gt;ShopModule -->
<g id="edge48" class="edge">
<title>ShopcoleopteraComponent&#45;&gt;ShopModule</title>
<path fill="none" stroke="black" d="M4869,-255.04C4869,-276.66 4869,-310 4869,-310 4869,-310 4180.25,-310 4180.25,-310"/>
<polygon fill="black" stroke="black" points="4180.25,-306.5 4170.25,-310 4180.25,-313.5 4180.25,-306.5"/>
</g>
<!-- ShopcrustaceaComponent -->
<g id="node46" class="node">
<title>ShopcrustaceaComponent</title>
<polygon fill="#ffffb3" stroke="black" points="4767.18,-255 4604.82,-255 4604.82,-219 4767.18,-219 4767.18,-255"/>
<text text-anchor="middle" x="4686" y="-232.8" font-family="Times,serif" font-size="14.00">ShopcrustaceaComponent</text>
</g>
<!-- ShopcrustaceaComponent&#45;&gt;ShopModule -->
<g id="edge49" class="edge">
<title>ShopcrustaceaComponent&#45;&gt;ShopModule</title>
<path fill="none" stroke="black" d="M4686,-255.13C4686,-275.57 4686,-306 4686,-306 4686,-306 4180.41,-306 4180.41,-306"/>
<polygon fill="black" stroke="black" points="4180.41,-302.5 4170.41,-306 4180.41,-309.5 4180.41,-302.5"/>
</g>
<!-- ShopdiplopodaComponent -->
<g id="node47" class="node">
<title>ShopdiplopodaComponent</title>
<polygon fill="#ffffb3" stroke="black" points="4587.11,-255 4420.89,-255 4420.89,-219 4587.11,-219 4587.11,-255"/>
<text text-anchor="middle" x="4504" y="-232.8" font-family="Times,serif" font-size="14.00">ShopdiplopodaComponent</text>
</g>
<!-- ShopdiplopodaComponent&#45;&gt;ShopModule -->
<g id="edge50" class="edge">
<title>ShopdiplopodaComponent&#45;&gt;ShopModule</title>
<path fill="none" stroke="black" d="M4504,-255.03C4504,-274.58 4504,-303 4504,-303 4504,-303 4180.47,-303 4180.47,-303"/>
<polygon fill="black" stroke="black" points="4180.47,-299.5 4170.47,-303 4180.47,-306.5 4180.47,-299.5"/>
</g>
<!-- ShopgastropodaComponent -->
<g id="node48" class="node">
<title>ShopgastropodaComponent</title>
<polygon fill="#ffffb3" stroke="black" points="4402.54,-255 4231.46,-255 4231.46,-219 4402.54,-219 4402.54,-255"/>
<text text-anchor="middle" x="4317" y="-232.8" font-family="Times,serif" font-size="14.00">ShopgastropodaComponent</text>
</g>
<!-- ShopgastropodaComponent&#45;&gt;ShopModule -->
<g id="edge51" class="edge">
<title>ShopgastropodaComponent&#45;&gt;ShopModule</title>
<path fill="none" stroke="black" d="M4317,-255.27C4317,-273.56 4317,-299 4317,-299 4317,-299 4180.3,-299 4180.3,-299"/>
<polygon fill="black" stroke="black" points="4180.3,-295.5 4170.3,-299 4180.3,-302.5 4180.3,-295.5"/>
</g>
<!-- ShophymenopteraComponent -->
<g id="node49" class="node">
<title>ShophymenopteraComponent</title>
<polygon fill="#ffffb3" stroke="black" points="4213.7,-255 4030.3,-255 4030.3,-219 4213.7,-219 4213.7,-255"/>
<text text-anchor="middle" x="4122" y="-232.8" font-family="Times,serif" font-size="14.00">ShophymenopteraComponent</text>
</g>
<!-- ShophymenopteraComponent&#45;&gt;ShopModule -->
<g id="edge52" class="edge">
<title>ShophymenopteraComponent&#45;&gt;ShopModule</title>
<path fill="none" stroke="black" d="M4155.44,-255.01C4155.44,-255.01 4155.44,-284.85 4155.44,-284.85"/>
<polygon fill="black" stroke="black" points="4151.94,-284.85 4155.44,-294.85 4158.94,-284.85 4151.94,-284.85"/>
</g>
<!-- ShopisopodaComponent -->
<g id="node50" class="node">
<title>ShopisopodaComponent</title>
<polygon fill="#ffffb3" stroke="black" points="4012.67,-255 3859.33,-255 3859.33,-219 4012.67,-219 4012.67,-255"/>
<text text-anchor="middle" x="3936" y="-232.8" font-family="Times,serif" font-size="14.00">ShopisopodaComponent</text>
</g>
<!-- ShopisopodaComponent&#45;&gt;ShopModule -->
<g id="edge53" class="edge">
<title>ShopisopodaComponent&#45;&gt;ShopModule</title>
<path fill="none" stroke="black" d="M3981.83,-255.17C3981.83,-257.45 3981.83,-259 3981.83,-259 3981.83,-259 4140.72,-259 4140.72,-259 4140.72,-259 4140.72,-284.72 4140.72,-284.72"/>
<polygon fill="black" stroke="black" points="4137.22,-284.72 4140.72,-294.72 4144.22,-284.72 4137.22,-284.72"/>
</g>
<!-- ShoplepidopteraComponent -->
<g id="node51" class="node">
<title>ShoplepidopteraComponent</title>
<polygon fill="#ffffb3" stroke="black" points="3841.59,-255 3668.41,-255 3668.41,-219 3841.59,-219 3841.59,-255"/>
<text text-anchor="middle" x="3755" y="-232.8" font-family="Times,serif" font-size="14.00">ShoplepidopteraComponent</text>
</g>
<!-- ShoplepidopteraComponent&#45;&gt;ShopModule -->
<g id="edge54" class="edge">
<title>ShoplepidopteraComponent&#45;&gt;ShopModule</title>
<path fill="none" stroke="black" d="M3823.6,-255.06C3823.6,-259.49 3823.6,-263 3823.6,-263 3823.6,-263 4126,-263 4126,-263 4126,-263 4126,-284.95 4126,-284.95"/>
<polygon fill="black" stroke="black" points="4122.5,-284.95 4126,-294.95 4129.5,-284.95 4122.5,-284.95"/>
</g>
<!-- ShopmantodeaComponent -->
<g id="node52" class="node">
<title>ShopmantodeaComponent</title>
<polygon fill="#ffffb3" stroke="black" points="3650.04,-255 3485.96,-255 3485.96,-219 3650.04,-219 3650.04,-255"/>
<text text-anchor="middle" x="3568" y="-232.8" font-family="Times,serif" font-size="14.00">ShopmantodeaComponent</text>
</g>
<!-- ShopmantodeaComponent&#45;&gt;ShopModule -->
<g id="edge55" class="edge">
<title>ShopmantodeaComponent&#45;&gt;ShopModule</title>
<path fill="none" stroke="black" d="M3645.01,-255.2C3645.01,-261.03 3645.01,-266 3645.01,-266 3645.01,-266 4111.28,-266 4111.28,-266 4111.28,-266 4111.28,-284.96 4111.28,-284.96"/>
<polygon fill="black" stroke="black" points="4107.78,-284.96 4111.28,-294.96 4114.78,-284.96 4107.78,-284.96"/>
</g>
<!-- ShopphasmatodeaComponent -->
<g id="node53" class="node">
<title>ShopphasmatodeaComponent</title>
<polygon fill="#ffffb3" stroke="black" points="5842.7,-255 5659.3,-255 5659.3,-219 5842.7,-219 5842.7,-255"/>
<text text-anchor="middle" x="5751" y="-232.8" font-family="Times,serif" font-size="14.00">ShopphasmatodeaComponent</text>
</g>
<!-- ShopphasmatodeaComponent&#45;&gt;ShopModule -->
<g id="edge56" class="edge">
<title>ShopphasmatodeaComponent&#45;&gt;ShopModule</title>
<path fill="none" stroke="black" d="M5751,-255.42C5751,-282.01 5751,-328 5751,-328 5751,-328 4180.31,-328 4180.31,-328"/>
<polygon fill="black" stroke="black" points="4180.31,-324.5 4170.31,-328 4180.31,-331.5 4180.31,-324.5"/>
</g>
</g>
</svg>
